<?xml version="1.0" encoding="UTF-8" standalone="no"?>
<!-- Created with Inkscape (http://www.inkscape.org/) -->

<svg
   xmlns:dc="http://purl.org/dc/elements/1.1/"
   xmlns:cc="http://creativecommons.org/ns#"
   xmlns:rdf="http://www.w3.org/1999/02/22-rdf-syntax-ns#"
   xmlns:svg="http://www.w3.org/2000/svg"
   xmlns="http://www.w3.org/2000/svg"
   xmlns:sodipodi="http://sodipodi.sourceforge.net/DTD/sodipodi-0.dtd"
   xmlns:inkscape="http://www.inkscape.org/namespaces/inkscape"
   width="512"
   height="512"
   viewBox="0 0 512.00001 512.00001"
   id="svg4254"
   version="1.1"
   inkscape:version="0.91+devel+osxmenu r12922"
   sodipodi:docname="cutter_white_plain.svg">
  <defs
     id="defs4256" />
  <sodipodi:namedview
     id="base"
     pagecolor="#ffffff"
     bordercolor="#666666"
     borderopacity="1.0"
     inkscape:pageopacity="0"
     inkscape:pageshadow="2"
     inkscape:zoom="0.98994949"
     inkscape:cx="165.82434"
     inkscape:cy="293.3105"
     inkscape:document-units="px"
     inkscape:current-layer="layer1"
     showgrid="false"
     units="px"
     inkscape:snap-bbox="true"
     inkscape:window-width="2560"
     inkscape:window-height="1395"
     inkscape:window-x="0"
     inkscape:window-y="23"
     inkscape:window-maximized="0" />
  <metadata
     id="metadata4259">
    <rdf:RDF>
      <cc:Work
         rdf:about="">
        <dc:format>image/svg+xml</dc:format>
        <dc:type
           rdf:resource="http://purl.org/dc/dcmitype/StillImage" />
        <dc:title />
      </cc:Work>
    </rdf:RDF>
  </metadata>
  <g
     inkscape:label="Ebene 1"
     inkscape:groupmode="layer"
     id="layer1"
     transform="translate(0,-540.36216)">
    <path
       style="color:#000000;font-style:normal;font-variant:normal;font-weight:normal;font-stretch:normal;font-size:medium;line-height:normal;font-family:sans-serif;text-indent:0;text-align:start;text-decoration:none;text-decoration-line:none;text-decoration-style:solid;text-decoration-color:#000000;letter-spacing:normal;word-spacing:normal;text-transform:none;direction:ltr;block-progression:tb;writing-mode:lr-tb;baseline-shift:baseline;text-anchor:start;white-space:normal;clip-rule:nonzero;display:inline;overflow:visible;visibility:visible;opacity:1;isolation:auto;mix-blend-mode:normal;color-interpolation:sRGB;color-interpolation-filters:linearRGB;solid-color:#000000;solid-opacity:1;fill:#ffffff;fill-opacity:1;fill-rule:nonzero;stroke:none;stroke-width:10;stroke-linecap:butt;stroke-linejoin:miter;stroke-miterlimit:4;stroke-dasharray:none;stroke-dashoffset:0;stroke-opacity:1;color-rendering:auto;image-rendering:auto;shape-rendering:auto;text-rendering:auto;enable-background:accumulate"
       d="M 256.00195 32 C 132.45415 32 32.000055 132.45075 32 256 C 32.000027 289.63902 39.491832 321.53839 52.824219 350.19141 L 69.685547 318.44727 C 63.130463 298.82907 59.529324 277.84975 59.529297 256 C 59.529324 147.32881 147.332 59.529297 256.00195 59.529297 C 313.44905 59.529297 365.05101 84.076529 400.94531 123.26172 L 305.05469 123.26172 L 231.93164 260.45117 L 305.25391 399.1582 L 390.61133 399.1582 C 355.47034 432.20716 308.15703 452.4707 256.00195 452.4707 C 207.76651 452.4707 163.66719 435.14021 129.50781 406.39648 L 90.123047 406.39648 C 131.12894 451.58391 190.29601 480 256.00195 480 C 379.54973 480 480 379.54923 480 256 C 480 132.45072 379.54973 32 256.00195 32 z M 189.35742 151.83984 L 68.761719 378.86719 L 263.39062 378.86719 L 200.76758 260.39844 L 258.62695 151.83984 L 189.35742 151.83984 z M 352.08594 202.39844 L 352.08594 259.24219 L 390.16406 230.82031 L 428.23828 202.39844 L 428.23828 259.24219 L 428.23828 316.08594 L 390.16406 287.66406 L 352.08594 259.24219 L 352.08594 316.08594 L 314.01367 287.66406 L 275.93359 259.24219 L 314.01367 230.82031 L 352.08594 202.39844 z M 162.80664 297.18555 C 173.86467 297.53148 185.03994 298.56836 196.10156 298.56836 L 196.10156 301.33203 L 189.99414 301.33203 L 189.99414 350.29297 L 196.10156 350.29297 L 196.10156 353.05859 L 153.47461 353.05859 L 153.47461 350.29297 L 161.65234 350.29297 L 161.65234 323.79688 C 161.65234 319.0741 161.99867 314.92608 160.38672 310.43359 C 160.04079 309.28168 156.58657 302.71619 154.85742 305.5957 C 155.319 307.32434 155.54883 309.28257 155.54883 311.01172 C 155.54883 318.72864 150.24929 323.68164 142.64648 323.68164 C 134.69774 323.68164 129.16797 318.15187 129.16797 310.20312 C 129.16797 301.90896 136.42649 297.41797 144.0293 297.41797 C 152.20678 297.41797 158.77338 301.79464 162.57812 308.82227 L 162.80664 308.82227 L 162.80664 297.18555 z "
       transform="translate(0,540.36216)"
       id="circle4218" />
  </g>
</svg>
