<?xml version="1.0" encoding="UTF-8" standalone="no"?>
<svg
   xmlns:dc="http://purl.org/dc/elements/1.1/"
   xmlns:cc="http://creativecommons.org/ns#"
   xmlns:rdf="http://www.w3.org/1999/02/22-rdf-syntax-ns#"
   xmlns:svg="http://www.w3.org/2000/svg"
   xmlns="http://www.w3.org/2000/svg"
   xmlns:sodipodi="http://sodipodi.sourceforge.net/DTD/sodipodi-0.dtd"
   xmlns:inkscape="http://www.inkscape.org/namespaces/inkscape"
   width="210mm"
   height="297mm"
   viewBox="0 0 210 297"
   version="1.1"
   id="svg8"
   inkscape:version="1.0.2 (e86c8708, 2021-01-15)"
   sodipodi:docname="iaito-circle.svg">
  <defs
     id="defs2" />
  <sodipodi:namedview
     id="base"
     pagecolor="#ffffff"
     bordercolor="#666666"
     borderopacity="1.0"
     inkscape:pageopacity="0.0"
     inkscape:pageshadow="2"
     inkscape:zoom="1"
     inkscape:cx="400"
     inkscape:cy="560"
     inkscape:document-units="mm"
     inkscape:current-layer="layer1"
     inkscape:document-rotation="0"
     showgrid="false"
     inkscape:window-width="1646"
     inkscape:window-height="1312"
     inkscape:window-x="868"
     inkscape:window-y="53"
     inkscape:window-maximized="0" />
  <metadata
     id="metadata5">
    <rdf:RDF>
      <cc:Work
         rdf:about="">
        <dc:format>image/svg+xml</dc:format>
        <dc:type
           rdf:resource="http://purl.org/dc/dcmitype/StillImage" />
        <dc:title></dc:title>
      </cc:Work>
    </rdf:RDF>
  </metadata>
  <g
     inkscape:label="Layer 1"
     inkscape:groupmode="layer"
     id="layer1">
    <circle
       style="fill:#ffffff;stroke:#000000;stroke-width:0.856776;stroke-linecap:round;stroke-linejoin:round;stroke-opacity:1;fill-opacity:1"
       id="path877"
       cx="105.03957"
       cy="127.00002"
       r="96.909126" />
    <path
       fill="#000000"
       d="m 119.34334,109.31803 c -0.003,-0.007 0.15688,0.0182 0.46674,0.0829 0.30986,0.0632 0.49646,0.0814 1.09066,0.24237 0.59444,0.15989 1.07778,0.23402 1.92711,0.51411 0.84939,0.2798 1.59003,0.47326 2.66416,0.89118 1.07402,0.41793 2.02584,0.78537 3.2935,1.35544 1.26765,0.57003 2.19487,1.00238 3.58655,1.80537 1.39168,0.80304 2.49916,1.42402 3.96354,2.47552 1.46446,1.05162 2.66578,1.93521 4.15206,3.24112 1.4862,1.30591 2.68675,2.49714 4.14535,4.05393 1.4586,1.55675 2.51695,2.91255 3.81384,4.77258 1.29698,1.85999 2.35562,3.4579 3.42464,5.58545 1.06903,2.12758 2.02258,3.98943 2.8049,6.33627 0.78231,2.34699 1.42063,4.57388 1.98845,7.0559 0.56788,2.48206 0.76823,4.81884 0.9701,7.40878 0.20192,2.58991 0.0572,5.04148 -0.1314,7.66344 -0.18848,2.62185 -0.7014,5.11946 -1.28554,7.69295 -0.58413,2.57348 -1.45688,5.04969 -2.41928,7.49566 -0.9624,2.44612 -2.19938,4.82298 -3.50137,7.07063 -1.30208,2.24764 -2.88527,4.44684 -4.47194,6.43779 -1.58666,1.99095 -3.46532,3.95276 -5.2709,5.64346 -1.80557,1.69069 -3.91046,3.38254 -5.86305,4.74423 -1.95268,1.36176 -4.20947,2.78163 -6.23464,3.80028 -2.02518,1.01873 -4.27686,2.02297 -6.26475,2.79547 -1.98786,0.77247 -4.39463,1.51743 -6.32203,1.96094 -1.92731,0.44358 -4.12487,0.89017 -5.91208,1.12193 -1.78713,0.23184 -3.87152,0.42879 -5.47655,0.47811 -1.60513,0.0494 -3.31331,0.029 -4.702115,0.004 -1.388702,-0.0254 -3.097662,-0.2213 -4.241097,-0.35575 -1.143534,-0.13445 -2.391866,-0.32486 -3.27293,-0.47188 -0.881044,-0.14681 -1.865389,-0.34703 -2.46609,-0.47566 -0.60078,-0.12865 -1.060658,-0.22458 -1.369576,-0.28598 -0.308908,-0.0611 -0.466855,-0.0879 -0.463771,-0.0771 0.0059,0.0181 0.0138,0.0327 0.02178,0.0509 0.0089,0.0181 0.01891,0.0327 0.03015,0.0494 0.01094,0.0146 0.02394,0.0327 0.03784,0.0484 0.0138,0.0145 0.02867,0.0327 0.04483,0.0469 0.01597,0.0146 0.03311,0.029 0.05143,0.0458 0.01813,0.0146 0.03734,0.029 0.05735,0.0447 0.02039,0.0145 0.04099,0.029 0.06267,0.044 0.02177,0.0145 0.04434,0.029 0.06749,0.0433 0.02364,0.0146 0.0471,0.029 0.07173,0.0422 0.02473,0.0145 0.04956,0.029 0.07537,0.0418 0.02621,0.0109 0.05173,0.029 0.07833,0.0411 0.0269,0.0109 0.0536,0.0254 0.08089,0.0407 0.02759,0.0109 0.05488,0.0254 0.08277,0.0403 0.02837,0.0109 0.05597,0.0254 0.08415,0.0403 0.02837,0.0109 0.05666,0.0254 0.08484,0.04 0.02867,0.0109 0.05676,0.0254 0.08503,0.04 0.02867,0.0109 0.05676,0.0254 0.08454,0.04 0.02837,0.0109 0.05607,0.0254 0.08365,0.04 0.02798,0.0109 0.05518,0.0254 0.08218,0.0403 0.02729,0.0109 0.0537,0.0254 0.08001,0.0403 0.0265,0.0109 0.05203,0.0254 0.07725,0.0411 0.02581,0.0109 0.04986,0.029 0.07409,0.0414 0.02433,0.0146 0.04739,0.029 0.07015,0.0421 0.02286,0.0145 0.04464,0.029 0.06582,0.0428 0.02109,0.0145 0.04138,0.029 0.0609,0.0435 0.01922,0.0146 0.03784,0.029 0.05518,0.0447 0.01744,0.0146 0.03379,0.029 0.04927,0.0454 0.01528,0.0146 0.02946,0.029 0.04237,0.0465 0.01271,0.0145 0.02473,0.0327 0.03527,0.0476 0.01015,0.0145 0.01932,0.0327 0.02729,0.049 0.0079,0.0181 0.01419,0.0327 0.01892,0.0506 0.0049,0.0181 0.0089,0.0328 0.0099,0.0519 -0.003,0.0145 0.13292,0.0654 0.400917,0.1468 0.267919,0.0814 0.965477,0.24093 1.493983,0.35684 0.528486,0.11592 1.468502,0.33358 2.243231,0.45575 0.774698,0.1221 1.950274,0.33358 2.954493,0.43566 1.004327,0.1021 2.400527,0.24855 3.615785,0.30706 1.21526,0.0588 2.81019,0.0865 4.2161,0.0821 1.40582,-0.004 3.43811,-0.15697 5.00669,-0.31977 1.56859,-0.16279 3.71712,-0.49088 5.41214,-0.83831 1.69492,-0.34739 3.91527,-0.91644 5.69748,-1.46707 1.78222,-0.55056 4.01777,-1.40842 5.84671,-2.17333 1.82895,-0.76495 4.23639,-1.98394 6.02208,-3.05362 1.78568,-1.06971 3.90545,-2.46745 5.64585,-3.75115 1.7404,-1.28382 3.86258,-3.09181 5.44483,-4.65714 1.58224,-1.56532 3.33734,-3.51078 4.78864,-5.25725 1.45129,-1.74644 3.01843,-4.08314 4.21023,-6.04753 1.19191,-1.96442 2.51407,-4.42072 3.40167,-6.54991 0.88761,-2.1291 1.78433,-4.56788 2.44985,-6.76708 0.66578,-2.19921 1.26678,-4.81953 1.58868,-7.06735 0.32184,-2.24775 0.55532,-4.72106 0.64848,-6.94468 0.0932,-2.22369 0.007,-4.72806 -0.22413,-6.87832 -0.23035,-2.15026 -0.58792,-4.41992 -1.0101,-6.45808 -0.42222,-2.03815 -1.01393,-4.21584 -1.69146,-6.07881 -0.67748,-1.86297 -1.4109,-3.7723 -2.21217,-5.45656 -0.80115,-1.68419 -1.68436,-3.36413 -2.57224,-4.84897 -0.8879,-1.48476 -1.84212,-2.93268 -2.77577,-4.2033 -0.9337,-1.27063 -1.87798,-2.50397 -2.81395,-3.55272 -0.93598,-1.04874 -1.84606,-2.02671 -2.6976,-2.89529 -0.85154,-0.86862 -1.67339,-1.66885 -2.44505,-2.31927 -0.77164,-0.65041 -1.44446,-1.26284 -2.06612,-1.7404 -0.62163,-0.47763 -1.14921,-0.88537 -1.57541,-1.21804 -0.42622,-0.33286 -0.76771,-0.57468 -0.9925,-0.74082 -0.22479,-0.16607 -0.33732,-0.25691 -0.3297,-0.26818 0.007,-0.0109 0.13522,0.06 0.37568,0.20786 0.24041,0.14789 0.60238,0.37766 1.04556,0.69656 0.44318,0.31904 0.98789,0.71473 1.62685,1.182 0.63898,0.46723 1.38525,1.06084 2.14257,1.74268 0.75735,0.68178 1.62878,1.44592 2.49869,2.31295 0.86995,0.86702 1.80509,1.86028 2.75933,2.91095 0.9542,1.05067 1.92673,2.3241 2.87788,3.6009 0.95121,1.27677 1.92711,2.77433 2.83115,4.26898 0.90409,1.49464 1.80038,3.23243 2.61616,4.92995 0.81577,1.69752 1.66733,3.72434 2.26593,5.63433 0.59867,1.90999 1.23545,4.06813 1.66665,6.12514 0.43116,2.05699 0.76253,4.39838 0.99903,6.56912 0.23652,2.17076 0.25778,4.77048 0.16683,7.01601 -0.0909,2.24543 -0.38329,4.78508 -0.70576,7.05515 -0.3225,2.27006 -1.03422,4.9664 -1.70425,7.18769 -0.67014,2.22134 -1.63686,4.91103 -2.63857,7.01402 -1.00173,2.10294 -2.27247,4.48849 -3.47464,6.47315 -1.2021,1.98464 -2.92403,4.33235 -4.3883,6.09709 -1.46428,1.76471 -3.41946,3.92671 -5.09045,5.43001 -1.67097,1.50329 -3.71788,3.20987 -5.47404,4.5083 -1.75616,1.29842 -4.15852,2.8423 -6.00995,3.83796 -1.85145,0.99577 -4.14574,2.11345 -5.9915,2.88929 -1.84577,0.77596 -4.18544,1.55956 -5.9842,2.1201 -1.79875,0.56043 -4.11746,1.04064 -5.82843,1.39716 -1.71098,0.35647 -3.95046,0.58151 -5.53434,0.75291 -1.58387,0.17151 -3.69797,0.20749 -5.11832,0.22058 -1.42023,0.0145 -3.37965,-0.0564 -4.603939,-0.16751 -1.224389,-0.1112 -2.671835,-0.25874 -3.682026,-0.40136 -1.010179,-0.14245 -2.237268,-0.3463 -3.016036,-0.49568 -0.778709,-0.14936 -1.773656,-0.34849 -2.305621,-0.47767 -0.531965,-0.129 -0.9404,-0.22711 -1.216507,-0.29216 -0.276135,-0.065 -0.419923,-0.097 -0.422594,-0.0934 -0.0099,0.0145 0.165406,0.0767 0.516417,0.18568 0.35106,0.10901 1.206899,0.37657 1.905285,0.54031 0.698346,0.16389 1.891628,0.47595 2.919121,0.65495 1.027492,0.17916 2.546275,0.44958 3.881523,0.60892 1.335149,0.15916 3.488587,0.39684 5.110527,0.42409 1.62195,0.0254 4.03786,0.0763 5.90689,-0.0799 1.86903,-0.15626 4.49414,-0.41887 6.56422,-0.80002 2.07007,-0.38111 4.82624,-1.05431 7.04668,-1.69153 2.22045,-0.63722 5.29792,-1.88444 7.56883,-2.90866 2.27084,-1.02422 5.27629,-2.74097 7.50971,-4.16359 2.23343,-1.42274 5.039,-3.65799 7.14571,-5.47321 2.1067,-1.8153 4.83287,-4.71942 6.61557,-6.99359 1.78269,-2.2742 3.91315,-5.38927 5.3806,-7.9762 1.46744,-2.58696 3.23765,-6.30186 4.17601,-9.18792 0.93827,-2.88595 1.9947,-6.58979 2.49195,-9.62016 0.49727,-3.03053 0.80921,-6.85629 0.84728,-9.93935 0.0381,-3.08312 -0.35469,-7.10568 -0.91741,-10.12492 -0.56273,-3.0195 -1.56463,-6.61113 -2.54559,-9.48371 -0.98066,-2.87269 -2.66596,-6.3536 -4.14418,-8.9358 -1.47821,-2.58225 -3.51627,-5.48444 -5.29609,-7.76287 -1.77981,-2.27841 -4.31089,-4.8866 -6.41337,-6.70978 -2.10248,-1.82318 -4.6974,-3.84912 -6.93342,-5.27237 -2.23593,-1.4231 -4.96622,-2.95863 -7.24647,-3.9686 -2.28014,-1.01001 -4.8743,-1.96664 -7.07254,-2.68646 -2.19823,-0.71993 -4.8721,-1.301695 -6.95169,-1.649158 -2.07959,-0.34739 -4.39118,-0.608913 -6.26646,-0.733262 -1.87538,-0.124276 -3.94863,-0.117371 -5.57423,-0.06577 -1.62571,0.0516 -3.41514,0.20349 -4.753555,0.375442 -1.338319,0.171878 -2.67203,0.386562 -3.704616,0.566434 -1.032577,0.179872 -2.040845,0.418903 -2.747311,0.57174 -0.706563,0.152624 -1.379951,0.333214 -1.742992,0.421264 -0.363091,0.0879 -0.552745,0.12464 -0.557485,0.10684 -0.0049,-0.0182 0.17584,-0.0883 0.530191,-0.20822 0.354292,-0.11992 1.027207,-0.332493 1.726932,-0.514146 0.699756,-0.181326 1.713582,-0.450372 2.741063,-0.656008 1.027493,-0.205672 2.372259,-0.44721 3.70683,-0.64198 1.334583,-0.194772 3.159683,-0.371774 4.783543,-0.443686 1.62387,-0.07195 3.74116,-0.09774 5.61634,0.0073 1.87509,0.10647 4.23765,0.356112 6.3181,0.68824 2.08037,0.332128 4.83748,0.917422 7.03803,1.62398 2.20054,0.70651 4.85353,1.67059 7.13619,2.66912 2.28264,0.99864 5.10043,2.56465 7.33934,3.97816 2.2388,1.41351 4.91756,3.48455 7.02321,5.29944 2.10566,1.815 4.73662,4.50532 6.51991,6.77679 1.78327,2.27152 3.8871,5.2465 5.36876,7.82249 1.48168,2.57606 3.02027,5.9859 4.14094,8.80282 1.12054,2.81694 2.10919,6.78987 2.67587,9.80479 0.56664,3.01448 0.99335,7.1776 0.95977,10.25662 -0.0334,3.07861 -0.33565,7.01571 -0.82779,10.04222 -0.49213,3.02654 -1.55388,6.84518 -2.48628,9.72786 -0.93245,2.88258 -2.73635,6.75074 -4.19687,9.33555 -1.46052,2.58483 -3.63213,5.80981 -5.40704,8.08303 -1.77492,2.27323 -4.43108,4.99744 -6.43905,6.91292 -2.00796,1.91548 -5.21524,4.36476 -7.43943,5.79059 -2.22419,1.42579 -5.31551,3.23062 -7.5769,4.26031 -2.2614,1.02972 -5.13956,2.14518 -7.31723,2.89606 -2.17767,0.75089 -5.37253,1.47754 -7.43366,1.86941 -2.06113,0.3919 -4.76701,0.70422 -6.62788,0.87399 -1.86076,0.1697 -4.36695,0.16679 -5.98178,0.15625 -1.61483,-0.0109 -3.868638,-0.20676 -5.198496,-0.34629 -1.329867,-0.13954 -2.901336,-0.38068 -3.924788,-0.53711 -1.023452,-0.15626 -2.274672,-0.43867 -2.970554,-0.57639 -0.695923,-0.13773 -1.615996,-0.37461 -1.966336,-0.45492 -0.350449,-0.0803 -0.526191,-0.11264 -0.515737,-0.0941 0.02069,0.0368 0.249927,0.13263 0.674689,0.28344 0.424673,0.15116 1.456481,0.44891 2.271203,0.66501 0.814565,0.21694 2.231889,0.54606 3.416383,0.78424 1.184592,0.23802 3.386576,0.6074 4.926499,0.75027 1.539937,0.14281 4.085257,0.36193 5.942847,0.34267 1.8576,-0.0181 4.69933,-0.11011 6.82795,-0.34703 2.12863,-0.23656 5.61231,-0.75669 7.93168,-1.36848 2.31928,-0.61197 5.50444,-1.60774 7.96909,-2.52101 2.46446,-0.91382 6.39616,-2.83498 8.81448,-4.30694 2.41792,-1.47263 5.83112,-3.83576 8.14714,-5.75287 2.316,-1.91712 5.71633,-5.23639 7.71045,-7.68113 1.99422,-2.44467 4.56213,-6.12035 6.23234,-8.93861 1.67022,-2.81837 3.69442,-7.43963 4.79604,-10.62487 1.10162,-3.18497 2.32015,-8.15876 2.7678,-11.56611 0.44772,-3.40773 0.71903,-8.53959 0.48082,-12.00837 -0.23812,-3.4687 -0.97932,-8.53394 -1.8877,-11.90359 -0.90872,-3.36906 -2.63068,-8.15145 -4.15792,-11.27288 -1.52734,-3.12131 -4.13746,-7.4356 -6.20533,-10.17587 -2.06796,-2.74067 -5.43002,-6.43914 -7.93562,-8.68449 -2.50561,-2.24536 -6.44463,-5.22935 -9.2603,-6.88937 -2.81557,-1.66002 -6.80506,-3.595887 -9.72399,-4.76742 -2.91922,-1.171423 -7.45539,-2.455495 -10.40278,-2.989297 -2.94729,-0.533839 -7.03341,-1.011065 -9.84993,-1.09199 -2.81675,-0.08103 -6.70835,0.129727 -9.303084,0.440525 -2.594733,0.311051 -6.172925,1.051218 -8.471531,1.674812 -2.298615,0.623521 -5.509243,1.707916 -7.457211,2.551754 -1.948068,0.843729 -4.410412,2.022096 -6.018708,2.909496 -1.608292,0.88752 -3.670484,2.1697 -4.928333,3.02978 -1.257854,0.86023 -2.959792,2.09528 -3.868162,2.85405 -0.908413,0.75873 -1.967582,1.64062 -2.568004,2.19354 -0.600552,0.55273 -1.060658,0.97672 -1.37082,1.26234 -0.310071,0.28561 -0.7205,0.70993 -0.7205,0.70993 l 3.002863,-2.79318 2.894027,-2.35092 3.025842,-2.17834 3.47137,-2.18256 3.286201,-1.765007 3.383975,-1.572049 3.471177,-1.373898 3.922393,-1.24479 3.628089,-0.908301 3.677976,-0.695071 4.10919,-0.490452 3.74749,-0.201675 3.75625,0.0218 4.15525,0.291067 3.72962,0.522429 3.69441,0.74329 3.64617,0.96121 3.58435,1.174403 3.88104,1.57819 3.39907,1.638224 3.29523,1.83702 3.51714,2.26861 3.01825,2.25851 2.87855,2.43187 2.72991,2.59627 2.82126,3.0765 2.36214,2.93164 2.18776,3.06371 2.19583,3.548 1.76887,3.32495 1.57406,3.42281 1.49965,3.90498 1.11402,3.60559 0.90288,3.66703 0.68771,3.71682 0.46989,4.18612 0.18867,3.78546 -0.0356,3.79374 -0.32697,4.22832 -0.54326,3.765 -0.76599,3.72877 -0.98566,3.67932 -1.37265,4.03699 -1.46283,3.5199 -1.66867,3.42659 -1.86866,3.32099 -2.33504,3.56359 -2.29303,3.03882 -2.46725,2.89717 -2.95576,3.05336 -2.82662,2.54271 -2.96912,2.37342 -3.1016,2.19717 -3.62472,2.20919 -3.3636,1.77269 -3.46166,1.5762 -3.98296,1.4981 -3.64463,1.11049 -3.70595,0.89743 -4.21611,0.72988 -3.80269,0.39983 -3.82345,0.17551 -3.83124,-0.0509 -4.301273,-0.36302 c 0,0 10.850793,1.47437 14.770583,1.02585 2.70934,-0.30996 7.16993,-1.18999 10.31625,-2.02634 3.14679,-0.83647 8.79419,-3.02553 12.06414,-4.80823 3.26947,-1.78281 8.27626,-5.03392 11.45938,-7.66671 3.18295,-2.63283 7.8941,-7.68383 10.55084,-11.28635 2.65694,-3.60243 6.62749,-10.72869 8.35327,-15.71184 1.72579,-4.98229 3.61223,-13.57554 3.79,-19.34512 0.1778,-5.76911 -0.90681,-15.26957 -2.73577,-20.95648 -1.82903,-5.68672 -5.95659,-14.25813 -9.49574,-18.95091 -3.53904,-4.6929 -10.3047,-11.54967 -15.2138,-14.78396 -4.90902,-3.233886 -12.82464,-7.04958 -17.73471,-8.461814 -4.91007,-1.412161 -12.2199,-2.516687 -15.94547,-2.621086 -3.72577,-0.104289 -8.11532,0.229292 -8.428073,0.267447 -0.312718,0.03852 -2.254193,0.230019 -4.394644,0.56102 -2.140354,0.331402 -6.350303,1.295336 -9.335854,2.197568 -2.985561,0.902233 -8.013986,3.065826 -11.317105,4.789294 -3.302736,1.723501 -8.574118,5.390031 -11.520929,7.955161 -2.946714,2.56512 -7.085901,7.07781 -9.602756,10.30952 -2.516859,3.23138 -5.825748,9.27604 -7.474712,13.02556 -1.648868,3.74963 -3.651546,10.36432 -4.294268,14.21871 -0.642828,3.85415 -1.129308,9.91439 -1.027973,13.44287 0.101347,3.52819 0.810658,9.27117 1.543498,12.52661 0.73279,3.25532 2.417827,8.59197 3.646545,11.40841 1.228623,2.81673 3.425224,7.02033 4.863826,9.35021 1.438602,2.32983 4.092367,5.87975 5.588174,7.66946 1.495805,1.78976 3.88056,4.21814 5.201962,5.52118 5.465974,3.83433 4.124285,2.23209 9.147613,4.15359 7.296265,2.86637 16.936718,-0.23147 18.590391,-3.44272 1.654541,-3.2111 -0.488403,-11.8776 -9.289711,-20.64016 -1.331306,-1.22229 -1.902694,-1.68221 -3.437631,-3.38752 -1.534937,-1.70533 -1.915762,-2.09596 -3.433108,-4.35803 -1.517341,-2.26196 -1.986524,-3.09152 -3.3335,-5.87871 -1.346881,-2.78722 -1.511288,-3.41052 -2.392351,-6.7044 -0.881102,-3.29389 -0.982495,-4.17861 -1.239003,-7.83576 -0.256583,-3.65718 -0.342631,-4.29724 0.379082,-8.47053 0.721736,-4.17333 0.734741,-5.30602 2.595022,-9.48684 1.860281,-4.18081 2.381772,-5.52652 5.269647,-9.2199 2.887876,-3.69337 4.002471,-4.81007 7.591048,-7.64363 3.588479,-2.83355 4.530977,-3.49541 8.709288,-5.20053 4.178321,-1.70511 5.515974,-2.31428 9.355082,-2.89594 3.83912,-0.58166 5.18995,-0.83443 7.98418,-0.71771 2.79423,0.11665 3.82451,0.17006 4.05074,0.1984 0.22621,0.0291 1.03105,0.0254 3.12314,0.38333 2.09209,0.35721 3.3757,0.45262 6.50202,1.48651 3.12631,1.03382 4.85124,1.59742 8.44433,3.65097 3.59309,2.05353 5.42155,3.3287 8.74697,6.51048 3.32543,3.18178 5.01362,5.07687 7.49981,9.41277 2.48628,4.33591 3.88401,7.14313 5.08073,12.18623 1.19679,5.04294 1.74741,8.48203 1.42292,13.6294 -0.32446,5.14686 -1.05181,8.9233 -2.57511,13.60242 -1.52331,4.67875 -3.22391,8.00149 -5.95766,11.87858 -2.73375,3.877 -5.37627,6.79545 -8.73237,9.70574 -3.35619,2.90987 -6.57941,4.94054 -10.14894,6.77908 0.23495,-0.0327 0.55413,-0.11009 0.95255,-0.22929 0.3984,-0.11882 0.81635,-0.26381 1.35812,-0.48983 0.5418,-0.22602 1.11643,-0.44768 1.78251,-0.78817 0.66614,-0.34049 1.36823,-0.6669 2.13959,-1.12778 0.77139,-0.46083 1.57003,-0.91459 2.42725,-1.49992 0.85769,-0.58478 1.72002,-1.1844 2.64493,-1.8953 0.9249,-0.71088 1.81788,-1.46889 2.79172,-2.30571 0.97375,-0.8368 1.82308,-1.71435 2.77981,-2.72291 0.9568,-1.00853 1.84135,-1.97141 2.74885,-3.14737 0.90747,-1.17593 1.76194,-2.35455 2.65415,-3.64566 0.89222,-1.29113 1.5783,-2.56946 2.36937,-4.00862 0.79106,-1.4392 1.39476,-2.80819 2.05826,-4.37762 0.6635,-1.56947 1.15911,-3.0171 1.6726,-4.69482 0.51346,-1.67772 0.88304,-3.18603 1.22921,-4.94623 0.34644,-1.76021 0.56471,-3.30984 0.73259,-5.12437 0.16793,-1.81442 0.21354,-3.3812 0.19748,-5.22041 -0.016,-1.83924 -0.15369,-3.393 -0.3534,-5.22734 -0.19967,-1.83444 -0.51994,-3.34323 -0.89781,-5.14399 -0.3779,-1.8008 -0.87011,-3.23335 -1.41581,-4.97345 -0.54599,-1.74001 -1.05429,-2.932 -1.83238,-4.55077 -0.77819,-1.61879 -1.38294,-2.88847 -2.29199,-4.39242 -0.909,-1.50399 -1.6079,-2.64598 -2.62626,-4.01653 -1.01845,-1.37041 -1.773,-2.3786 -2.87682,-3.60021 -1.10383,-1.22161 -1.87288,-2.10062 -3.03565,-3.16176 -1.16276,-1.06117 -2.1468,-1.91115 -3.29495,-2.86212 -1.14815,-0.95092 -1.95393,-1.47314 -3.11063,-2.25516 -1.15671,-0.78203 -1.84713,-1.2445 -2.98181,-1.85934 -1.1347,-0.61483 -1.98384,-1.07476 -3.04142,-1.58378 -1.05758,-0.50902 -1.82779,-0.83613 -2.79048,-1.24457 -0.9626,-0.40848 -1.6257,-0.6273 -2.47571,-0.94253 -0.84998,-0.31505 -1.38024,-0.45583 -2.10017,-0.68733 -0.71988,-0.23184 -1.09565,-0.32922 -1.66867,-0.48871 l 8e-5,-5.1e-4"
       id="path88"
       style="stroke:#ffffff;stroke-width:0.278972;stroke-miterlimit:4;stroke-dasharray:none;stroke-opacity:1" />
    <path
       style="fill:#000000;stroke:#ffffff;stroke-width:0.200574px;stroke-linecap:butt;stroke-linejoin:miter;stroke-opacity:1"
       d="m 46.688438,62.695704 -8.825256,16.04592 c 0,0 6.732134,3.730937 10.429848,4.613201 17.517422,4.179608 34.771685,4.198784 53.9544,2.808037 l 0.0606,-0.0044 c 14.26714,-1.034367 27.06431,-7.751598 38.44957,-14.436897 8.54073,-5.106823 30.29374,-21.866106 23.46716,-18.452809 -9.2264,4.613203 -18.50824,11.661637 -28.88265,14.641903 -15.67882,4.504072 -23.06602,6.819517 -48.73948,4.412629 -25.67348,-2.406885 -39.914234,-9.62755 -39.914234,-9.62755 z"
       id="path118"
       sodipodi:nodetypes="ccasscssscc" />
  </g>
</svg>
