<?xml version="1.0" encoding="UTF-8" standalone="no"?>
<svg
   xmlns:dc="http://purl.org/dc/elements/1.1/"
   xmlns:cc="http://creativecommons.org/ns#"
   xmlns:rdf="http://www.w3.org/1999/02/22-rdf-syntax-ns#"
   xmlns:svg="http://www.w3.org/2000/svg"
   xmlns="http://www.w3.org/2000/svg"
   xmlns:sodipodi="http://sodipodi.sourceforge.net/DTD/sodipodi-0.dtd"
   xmlns:inkscape="http://www.inkscape.org/namespaces/inkscape"
   width="512"
   height="512"
   viewBox="0 0 512.00001 512.00001"
   version="1.1"
   id="svg8"
   inkscape:version="1.0.2 (e86c8708, 2021-01-15)"
   sodipodi:docname="iaito-o.svg">
  <defs
     id="defs2" />
  <sodipodi:namedview
     id="base"
     pagecolor="#ffffff"
     bordercolor="#666666"
     borderopacity="1.0"
     inkscape:pageopacity="0.0"
     inkscape:pageshadow="2"
     inkscape:zoom="1"
     inkscape:cx="400"
     inkscape:cy="560"
     inkscape:document-units="mm"
     inkscape:current-layer="layer1"
     inkscape:document-rotation="0"
     showgrid="false"
     inkscape:window-width="1646"
     inkscape:window-height="1312"
     inkscape:window-x="51"
     inkscape:window-y="23"
     inkscape:window-maximized="0" />
  <metadata
     id="metadata5">
    <rdf:RDF>
      <cc:Work
         rdf:about="">
        <dc:format>image/svg+xml</dc:format>
        <dc:type
           rdf:resource="http://purl.org/dc/dcmitype/StillImage" />
        <dc:title />
      </cc:Work>
    </rdf:RDF>
  </metadata>
  <g
     inkscape:label="Layer 1"
     inkscape:groupmode="layer"
     id="layer1">
    <path
       fill="#000000"
       d="m 311.59015,80.39062 c -0.0109,-0.02757 0.59413,0.06886 1.76768,0.313763 1.1735,0.239481 1.88021,0.308284 4.13063,0.917943 2.25132,0.605541 4.08187,0.886292 7.29854,1.947077 3.21687,1.059691 6.02189,1.792394 10.08994,3.375184 4.06763,1.582803 7.67247,2.974438 12.47347,5.13345 4.80098,2.15888 8.31263,3.796312 13.58331,6.837476 5.27074,3.041337 9.46509,5.393157 15.0111,9.375507 5.54636,3.98281 10.09609,7.32923 15.72508,12.27508 5.62866,4.94588 10.17553,9.45743 15.69967,15.35342 5.52413,5.89589 9.53244,11.03071 14.44413,18.07518 4.91205,7.04433 8.92145,13.09611 12.97016,21.15376 4.0487,8.05778 7.66009,15.10915 10.62298,23.99733 2.96282,8.88876 5.38033,17.32265 7.53083,26.7228 2.15074,9.40028 2.9095,18.25037 3.67406,28.05923 0.76474,9.80876 0.21648,19.09358 -0.49767,29.02372 -0.71383,9.92971 -2.65641,19.38889 -4.8687,29.13546 -2.21226,9.74653 -5.51762,19.12466 -9.16254,28.38829 -3.64489,9.26417 -8.3297,18.26605 -13.26071,26.77855 -4.93136,8.51247 -10.92738,16.84152 -16.93654,24.38182 -6.00918,7.54034 -13.1242,14.97029 -19.96248,21.37345 -6.83825,6.40314 -14.81007,12.8107 -22.2051,17.96781 -7.39537,5.15738 -15.94251,10.53483 -23.61243,14.39278 -7.66994,3.85824 -16.19774,7.66159 -23.72642,10.58727 -7.52863,2.92558 -16.64379,5.74696 -23.94342,7.42665 -7.29929,1.67996 -15.6221,3.37133 -22.39081,4.2491 -6.76836,0.87803 -14.66258,1.62392 -20.74129,1.81072 -6.07911,0.1872 -12.54848,0.10991 -17.80832,0.0143 -5.25942,-0.0962 -11.73176,-0.83812 -16.06228,-1.34733 -4.3309,-0.50918 -9.05871,-1.23033 -12.39555,-1.78715 -3.33678,-0.55601 -7.06479,-1.3143 -9.33981,-1.80146 -2.27533,-0.48722 -4.01703,-0.85053 -5.18699,-1.08309 -1.16993,-0.2314 -1.76811,-0.33286 -1.75644,-0.29184 0.0223,0.0686 0.0522,0.12403 0.0825,0.19265 0.0335,0.0686 0.0717,0.12374 0.11416,0.1872 0.0414,0.0551 0.0906,0.12374 0.14329,0.18316 0.0522,0.0548 0.10858,0.12375 0.16981,0.17773 0.0605,0.0551 0.12537,0.10991 0.19479,0.17341 0.0686,0.0551 0.14142,0.10991 0.2172,0.16939 0.0772,0.0548 0.15523,0.10991 0.23734,0.16652 0.0825,0.0551 0.16794,0.10992 0.25561,0.16394 0.0895,0.0551 0.17838,0.10991 0.27167,0.15963 0.0936,0.0549 0.18771,0.10991 0.28546,0.1582 0.0992,0.0413 0.19592,0.10992 0.29668,0.15561 0.1019,0.0413 0.20301,0.0962 0.30636,0.15417 0.10445,0.0413 0.20787,0.0962 0.31347,0.15274 0.10749,0.0413 0.21196,0.0962 0.31868,0.15274 0.10749,0.0413 0.21459,0.0962 0.32131,0.1516 0.10858,0.0413 0.21495,0.0962 0.32204,0.15158 0.10858,0.0413 0.21495,0.0962 0.32018,0.1516 0.10749,0.0413 0.21235,0.0962 0.31682,0.15159 0.10603,0.0413 0.20899,0.0962 0.31123,0.15273 0.10335,0.0413 0.20338,0.0962 0.30301,0.15274 0.10032,0.0413 0.19704,0.0962 0.29257,0.15562 0.0978,0.0413 0.18882,0.10992 0.28062,0.15676 0.0922,0.0551 0.17949,0.10992 0.26567,0.15963 0.0866,0.0549 0.16906,0.10991 0.24927,0.16221 0.0799,0.0548 0.15674,0.10992 0.23063,0.1648 0.0728,0.0551 0.14331,0.10992 0.20899,0.16939 0.0661,0.0551 0.128,0.10992 0.18659,0.17198 0.0578,0.0551 0.11161,0.10991 0.16046,0.17629 0.0481,0.0549 0.0936,0.12373 0.1336,0.1803 0.0384,0.0548 0.0731,0.12373 0.10335,0.18576 0.0299,0.0686 0.0538,0.12403 0.0717,0.19149 0.0187,0.0686 0.0336,0.12403 0.0373,0.19667 -0.0109,0.0548 0.50341,0.24777 1.51839,0.55598 1.01468,0.30824 3.65655,0.91245 5.65816,1.35143 2.00153,0.43904 5.56165,1.26338 8.49577,1.72608 2.93402,0.46241 7.38627,1.26335 11.18954,1.64997 3.80369,0.38669 9.0915,0.94133 13.69403,1.16291 4.60257,0.2228 10.64302,0.32765 15.96763,0.31085 5.32425,-0.0143 13.02114,-0.5945 18.96182,-1.21106 5.94072,-0.61653 14.07783,-1.85913 20.49737,-3.17495 6.41916,-1.31567 14.82831,-3.47082 21.57807,-5.55622 6.74979,-2.08512 15.21643,-5.33409 22.14317,-8.23105 6.92679,-2.89709 16.04448,-7.51378 22.80742,-11.56495 6.76288,-4.05131 14.7911,-9.34496 21.3825,-14.20672 6.59139,-4.86222 14.62873,-11.70959 20.62117,-17.63798 5.9924,-5.92832 12.6395,-13.29633 18.13599,-19.91073 5.49646,-6.61431 11.43171,-15.46407 15.94541,-22.9038 4.51409,-7.43985 9.5215,-16.74258 12.88313,-24.80643 3.36163,-8.06355 6.75777,-17.29993 9.2783,-25.62895 2.5215,-8.32904 4.79768,-18.25298 6.01678,-26.76614 1.21894,-8.51291 2.10316,-17.88004 2.45599,-26.30156 0.35302,-8.42178 0.0259,-17.90656 -0.84883,-26.05023 -0.8724,-8.14365 -2.22662,-16.73953 -3.82554,-24.45864 -1.59909,-7.71909 -3.84006,-15.96665 -6.40606,-23.02227 -2.56584,-7.05562 -5.34352,-14.28682 -8.37815,-20.66561 -3.0342,-6.37851 -6.37916,-12.74094 -9.74186,-18.36447 -3.36272,-5.62324 -6.97662,-11.10693 -10.51265,-15.91916 -3.53619,-4.81223 -7.11245,-9.48327 -10.65726,-13.4552 -3.54481,-3.9719 -6.99156,-7.67574 -10.21659,-10.96534 -3.22506,-3.2897 -6.33763,-6.32042 -9.26013,-8.78372 -2.92244,-2.4633 -5.47059,-4.78278 -7.82502,-6.591424 -2.3543,-1.808912 -4.35241,-3.353153 -5.96654,-4.613084 -1.61422,-1.260624 -2.90755,-2.17649 -3.75888,-2.805703 -0.85135,-0.628933 -1.27755,-0.972986 -1.24867,-1.015652 0.0259,-0.04129 0.51211,0.227069 1.42281,0.787199 0.91049,0.560117 2.28139,1.430305 3.95984,2.638072 1.67844,1.208326 3.74141,2.706901 6.16137,4.476583 2.41998,1.769549 5.24634,4.017729 8.11454,6.600069 2.8683,2.58208 6.16867,5.47613 9.46326,8.75981 3.29479,3.28366 6.83644,7.04543 10.4504,11.02465 3.61385,3.9792 7.2971,8.80202 10.89938,13.63765 3.60252,4.83552 7.29854,10.5072 10.72241,16.16789 3.42406,5.66065 6.81859,12.24217 9.90819,18.67117 3.08956,6.42904 6.31466,14.10521 8.58173,21.33889 2.26735,7.2337 4.679,15.40722 6.31211,23.19774 1.63292,7.7904 2.88792,16.65794 3.7836,24.87921 0.8958,8.22128 0.9763,18.06719 0.63183,26.57168 -0.34444,8.5041 -1.4516,18.12253 -2.67293,26.71993 -1.22137,8.5974 -3.91689,18.80922 -6.45447,27.22192 -2.53803,8.41286 -6.19926,18.59953 -9.99305,26.56415 -3.79383,7.96447 -8.6065,16.99924 -13.1595,24.51575 -4.55268,7.5164 -11.07417,16.40788 -16.61979,23.09148 -5.54564,6.68348 -12.95049,14.87161 -19.27901,20.56506 -6.32846,5.69341 -14.08071,12.1567 -20.73183,17.07424 -6.6511,4.91752 -15.74954,10.76464 -22.76145,14.53548 -7.01197,3.77131 -15.70113,8.00428 -22.69158,10.94263 -6.99049,2.93878 -15.85149,5.9065 -22.66392,8.02944 -6.81241,2.12252 -15.59404,3.94122 -22.07398,5.29144 -6.48001,1.35006 -14.96158,2.20236 -20.96019,2.8515 -5.99859,0.64958 -14.00532,0.78584 -19.38459,0.83539 -5.37884,0.0549 -12.79972,-0.2136 -17.43649,-0.63441 -4.63712,-0.42113 -10.11903,-0.9799 -13.94491,-1.52006 -3.82585,-0.53949 -8.4732,-1.31152 -11.42263,-1.87729 -2.9492,-0.56565 -6.71736,-1.31982 -8.73206,-1.80906 -2.01471,-0.48855 -3.56158,-0.86015 -4.60728,-1.1065 -1.04581,-0.24633 -1.59037,-0.36755 -1.60048,-0.35374 -0.0373,0.0548 0.62644,0.29032 1.95582,0.70324 1.32957,0.41285 4.57089,1.42616 7.21587,2.04632 2.64485,0.62068 7.16416,1.80255 11.05559,2.48047 3.8914,0.67851 9.64349,1.70268 14.70046,2.30618 5.05661,0.60277 13.2123,1.50293 19.3551,1.60614 6.14278,0.0962 15.29255,0.28883 22.37113,-0.30263 7.07858,-0.59178 17.02063,-1.58638 24.86066,-3.02988 7.83995,-1.44339 18.27836,-3.99301 26.68784,-6.40633 8.40947,-2.41335 20.06478,-7.13694 28.66539,-11.01598 8.60033,-3.87902 19.98285,-10.38083 28.44149,-15.76874 8.45867,-5.38831 19.08419,-13.85388 27.0629,-20.72866 7.97872,-6.87507 18.30352,-17.87384 25.05511,-26.48677 6.7516,-8.61307 14.82027,-20.41076 20.37794,-30.20823 5.55762,-9.79762 12.26193,-23.86701 15.81577,-34.79737 3.55354,-10.92996 7.55452,-24.9575 9.43777,-36.43439 1.88332,-11.47754 3.0647,-25.96682 3.20891,-37.64326 0.14442,-11.67669 -1.34333,-26.91133 -3.47452,-38.34608 -2.13124,-11.43573 -5.92571,-25.03829 -9.64088,-35.91761 -3.71408,-10.87974 -10.09681,-24.06298 -15.69525,-33.84254 -5.59841,-9.77973 -13.31715,-20.77119 -20.05788,-29.40026 -6.74065,-8.62903 -16.32661,-18.50702 -24.28931,-25.411923 -7.96273,-6.90493 -17.79046,-14.577773 -26.25891,-19.968024 -8.46812,-5.389704 -18.80854,-11.205211 -27.44453,-15.030282 -8.63555,-3.825205 -18.46042,-7.448251 -26.78579,-10.174402 -8.32533,-2.726573 -18.45206,-4.929907 -26.32811,-6.245851 -7.87602,-1.315666 -16.6307,-2.306134 -23.73294,-2.777078 -7.10261,-0.470669 -14.95463,-0.44452 -21.11126,-0.249094 -6.15702,0.195433 -12.93411,0.77068 -18.00311,1.42191 -5.0686,0.650954 -10.11976,1.464025 -14.03046,2.145255 -3.91067,0.681229 -7.7293,1.58651 -10.40489,2.165349 -2.67596,0.578015 -5.22627,1.261994 -6.60122,1.595456 -1.37513,0.333054 -2.09342,0.472044 -2.11136,0.404609 -0.0187,-0.06881 0.66596,-0.334434 2.00799,-0.788576 1.3418,-0.454155 3.89033,-1.259244 6.5404,-1.947216 2.65018,-0.686737 6.48984,-1.705694 10.38121,-2.484497 3.89142,-0.778939 8.98445,-1.693717 14.03886,-2.431369 5.05447,-0.737657 11.96664,-1.408017 18.11669,-1.680371 6.15009,-0.272491 14.16889,-0.370184 21.27076,0.02756 7.10152,0.403235 16.04921,1.3487 23.92851,2.606567 7.87897,1.257869 18.32097,3.47455 26.65509,6.150475 8.33407,2.675787 18.38175,6.327047 27.02684,10.108772 8.64503,3.782137 19.31686,9.713098 27.79625,15.066463 8.479,5.353366 18.62428,13.197008 26.599,20.070555 7.97473,6.873935 17.93898,17.062962 24.69281,25.665692 6.75378,8.60292 14.7216,19.87006 20.3331,29.62609 5.61156,9.75632 11.43862,22.67037 15.68292,33.33886 4.24383,10.66861 7.98814,25.71526 10.13434,37.13363 2.14603,11.41673 3.76212,27.1837 3.63492,38.84485 -0.1266,11.65961 -1.27121,26.57058 -3.13507,38.03286 -1.86383,11.46242 -5.885,25.92473 -9.41628,36.84228 -3.53148,10.91718 -10.36338,25.56705 -15.89479,35.35652 -5.53142,9.78949 -13.75597,22.00347 -20.47807,30.61281 -6.72212,8.60937 -16.78181,18.92679 -24.38657,26.18129 -7.60476,7.25446 -19.75164,16.53061 -28.17532,21.93066 -8.42366,5.39987 -20.1314,12.2353 -28.69598,16.13506 -8.56458,3.89983 -19.46503,8.12443 -27.71251,10.96823 -8.24745,2.84384 -20.34733,5.59586 -28.15343,7.07999 -7.80614,1.48426 -18.05408,2.6671 -25.10174,3.31007 -7.04726,0.64271 -16.53894,0.63168 -22.65476,0.59178 -6.11586,-0.0413 -14.6517,-0.78308 -19.68827,-1.31153 -5.03661,-0.52847 -10.98821,-1.44172 -14.86433,-2.0342 -3.87612,-0.59178 -8.61486,-1.66136 -11.25037,-2.18295 -2.63567,-0.5216 -6.12026,-1.41875 -7.4471,-1.72291 -1.32725,-0.30413 -1.99284,-0.42662 -1.95324,-0.35639 0.0783,0.13924 0.94654,0.50232 2.55525,1.07346 1.60836,0.57248 5.51613,1.70018 8.60172,2.5186 3.08499,0.82161 8.45281,2.06808 12.93884,2.97016 4.4864,0.90143 12.82597,2.30038 18.65812,2.84149 5.83219,0.54088 15.47207,1.37073 22.50733,1.2978 7.03526,-0.0686 17.79771,-0.41703 25.85946,-1.31431 8.06175,-0.89591 21.25545,-2.86583 30.03962,-5.18283 8.78378,-2.31774 20.84692,-6.08899 30.18129,-9.54783 9.33363,-3.46092 24.22414,-10.73688 33.38301,-16.31166 9.1574,-5.57729 22.0842,-14.52714 30.85565,-21.7878 8.77138,-7.2607 21.64941,-19.83178 29.20174,-29.09073 7.55272,-9.25868 17.27812,-23.17956 23.60372,-33.85314 6.32562,-10.67401 13.99184,-28.17609 18.164,-40.23952 4.17216,-12.06244 8.78709,-30.89963 10.48248,-43.8043 1.69567,-12.90607 2.7232,-32.34193 1.82102,-45.47922 -0.90182,-13.13699 -3.70896,-32.32057 -7.14927,-45.08241 -3.44158,-12.75966 -9.96318,-30.87196 -15.74729,-42.69372 -5.78449,-11.82134 -15.66978,-28.16081 -23.50139,-38.53905 -7.83198,-10.37972 -20.5651,-24.386916 -30.05454,-32.890728 -9.48949,-8.503813 -24.40772,-19.805082 -35.07151,-26.092071 -10.6634,-6.287 -25.77278,-13.618693 -36.82763,-18.055633 -11.05595,-4.436525 -28.23576,-9.299686 -39.39839,-11.321353 -11.16225,-2.021808 -26.63757,-3.829202 -37.3046,-4.135687 -10.66784,-0.306899 -25.4065,0.491312 -35.23351,1.668395 -9.82704,1.178045 -23.3787,3.981274 -32.0842,6.343008 -8.70553,2.361459 -20.86513,6.468385 -28.24266,9.664247 -7.37791,3.195451 -16.70354,7.658261 -22.79463,11.019145 -6.09107,3.361278 -13.90121,8.217281 -18.66505,11.474655 -4.76387,3.257934 -11.20961,7.935437 -14.64988,10.809129 -3.44043,2.873558 -7.45181,6.213509 -9.72579,8.307568 -2.27446,2.093368 -4.01702,3.699149 -5.1917,4.78086 -1.17433,1.081711 -2.728746,2.688719 -2.728746,2.688719 l 11.372726,-10.578598 10.96053,-8.903613 11.45977,-8.250036 13.1471,-8.266008 12.44582,-6.684591 12.81611,-5.953813 13.14637,-5.203357 14.85527,-4.714386 13.74064,-3.440005 13.92958,-2.632439 15.56271,-1.857488 14.19288,-0.763803 14.22601,0.08258 15.73717,1.102355 14.12515,1.978593 13.99186,2.815059 13.80911,3.640388 13.57497,4.447811 14.69865,5.977073 12.87329,6.204422 12.48001,6.957354 13.32046,8.591891 11.43098,8.553633 10.90191,9.210233 10.33898,9.832827 10.68494,11.651644 8.94616,11.10297 8.28568,11.60319 8.31627,13.4373 6.6992,12.59256 5.96146,12.96321 5.67961,14.7893 4.21913,13.65542 3.41947,13.88815 2.60454,14.07669 1.77962,15.85407 0.71455,14.33667 -0.13465,14.36802 -1.23831,16.01387 -2.05749,14.25918 -2.90103,14.12197 -3.733,13.93465 -5.19862,15.28928 -5.54015,13.33091 -6.31977,12.97748 -7.07715,12.5776 -8.8435,13.49634 -8.68437,11.50894 -9.34422,10.97245 -11.19432,11.56397 -10.70527,9.63 -11.24491,8.98881 -11.74669,8.32133 -13.72789,8.36688 -12.73895,6.71374 -13.11032,5.96952 -15.08464,5.67374 -13.80329,4.20575 -14.03554,3.39884 -15.96766,2.76429 -14.4019,1.51424 -14.48052,0.66474 -14.51004,-0.19265 -16.2902,-1.37486 c 0,0 41.09515,5.58388 55.94057,3.88522 10.26105,-1.17392 27.15462,-4.50686 39.07068,-7.67436 11.9178,-3.16795 33.30617,-11.45857 45.69043,-18.21017 12.38246,-6.75203 31.34465,-19.06498 43.40009,-29.03612 12.05475,-9.97128 29.89726,-29.10091 39.95916,-42.74473 10.06262,-13.64349 25.10025,-40.63272 31.63629,-59.50539 6.53607,-18.8694 13.68057,-51.41458 14.35383,-73.26567 0.67338,-21.84934 -3.43435,-57.83038 -10.36117,-79.36841 -6.92705,-21.53732 -22.55934,-53.99978 -35.96314,-71.77273 C 441.15153,93.466867 415.528,67.498242 396.93577,55.249043 378.34386,43.001347 348.36506,28.550187 329.76918,23.201637 c -18.59587,-5.348272 -46.28035,-9.531435 -60.39021,-9.926824 -14.11057,-0.394977 -30.73511,0.868395 -31.91959,1.012899 -1.18435,0.145878 -8.5373,0.871149 -16.64382,2.124749 -8.10615,1.255116 -24.05047,4.905819 -35.35763,8.322838 -11.30721,3.417025 -30.35134,11.611192 -42.86123,18.138472 -12.50844,6.527422 -32.47272,20.41364 -43.633162,30.128536 -11.160077,9.714883 -26.836402,26.805789 -36.368474,39.045213 -9.53209,12.23818 -22.06383,35.1311 -28.308946,49.33165 -6.244749,14.20096 -13.829483,39.25274 -16.263661,53.85047 -2.434579,14.59678 -4.277023,37.5487 -3.893238,50.91211 0.383832,13.36229 3.070202,35.11264 5.845685,47.44195 2.775293,12.32889 9.157026,32.54036 13.810543,43.20705 4.653157,10.66777 12.972337,26.58805 18.420748,35.41201 5.44841,8.82375 15.499003,22.26835 21.164066,29.04651 5.665055,6.77832 14.696829,15.97534 19.701366,20.91032 20.701263,14.52175 15.619893,8.45361 34.644713,15.73091 27.63311,10.85576 64.14436,-0.87665 70.40731,-13.03861 6.26623,-12.16139 -1.84973,-44.984 -35.18289,-78.17039 -5.04205,-4.62918 -7.20606,-6.37105 -13.01932,-12.82954 -5.81326,-6.4586 -7.25556,-7.93803 -13.00219,-16.50517 -5.74663,-8.5667 -7.52356,-11.70847 -12.62496,-22.26439 -5.10103,-10.55603 -5.72369,-12.91665 -9.06053,-25.39158 -3.337,-12.47489 -3.721,-15.82559 -4.69248,-29.6763 -0.97175,-13.85086 -1.29764,-16.27491 1.4357,-32.08041 2.73343,-15.80564 2.78269,-20.09546 9.82812,-35.92947 7.04543,-15.83397 9.02047,-20.93055 19.95771,-34.91847 10.93723,-13.98791 15.15853,-18.21718 28.74954,-28.94869 13.59063,-10.73152 17.16014,-13.23814 32.98464,-19.69596 15.82454,-6.45777 20.89063,-8.76486 35.43048,-10.967791 14.53989,-2.202906 19.65587,-3.160212 30.23844,-2.718171 10.5826,0.441774 14.48456,0.644079 15.34136,0.751419 0.8567,0.110037 3.90487,0.09631 11.82823,1.451767 7.92336,1.352842 12.7848,1.714226 24.62509,5.629856 11.84025,3.91537 18.37305,6.04988 31.98115,13.82731 13.60808,7.77732 20.53301,12.60677 33.12737,24.6571 12.59441,12.05033 18.98807,19.22762 28.40401,35.64896 9.41627,16.42137 14.7099,27.05311 19.2422,46.15286 4.53259,19.09908 6.61795,32.12393 5.38903,51.61853 -1.22882,19.49268 -3.98351,33.7952 -9.75272,51.51639 -5.76921,17.71983 -12.20987,30.30399 -22.5634,44.98772 -10.35351,14.68334 -20.36152,25.73636 -33.07209,36.75851 -12.71086,11.02051 -24.91816,18.71126 -38.43703,25.67436 0.88985,-0.12373 2.09869,-0.41696 3.6076,-0.86837 1.50887,-0.45001 3.09177,-0.99913 5.1436,-1.85517 2.05198,-0.856 4.22826,-1.69549 6.75091,-2.985 2.52285,-1.28953 5.18188,-2.52578 8.10324,-4.27124 2.9215,-1.74531 5.94618,-3.46383 9.19271,-5.68066 3.24834,-2.21473 6.51421,-4.48565 10.01713,-7.17807 3.50289,-2.6923 6.88488,-5.5631 10.5731,-8.7324 3.68786,-3.16918 6.90454,-6.49274 10.52795,-10.31245 3.6237,-3.8196 6.97373,-7.46631 10.4107,-11.92002 3.43685,-4.4536 6.67299,-8.91737 10.05205,-13.80721 3.37911,-4.88986 5.9775,-9.73129 8.97351,-15.18182 2.99597,-5.45066 5.28236,-10.63545 7.79522,-16.57933 2.51289,-5.94405 4.3899,-11.42665 6.33467,-17.78066 1.94462,-6.35402 3.34431,-12.06644 4.65535,-18.73286 1.31207,-6.66641 2.13874,-12.53533 2.77456,-19.40749 0.63596,-6.87175 0.80872,-12.80562 0.74788,-19.77122 -0.0606,-6.96576 -0.58205,-12.85032 -1.3384,-19.79751 -0.75624,-6.94757 -1.96917,-12.6618 -3.40028,-19.48179 -1.43121,-6.82016 -3.29536,-12.24564 -5.36209,-18.83595 -2.06782,-6.5899 -3.99292,-11.10432 -6.93977,-17.23511 -2.94722,-6.13082 -5.23761,-10.93946 -8.68043,-16.63537 -3.44265,-5.69606 -6.08962,-10.0211 -9.94646,-15.21179 -3.85717,-5.19016 -6.71484,-9.00848 -10.89536,-13.63507 -4.18051,-4.62659 -7.09313,-7.95567 -11.49688,-11.97451 -4.40373,-4.01899 -8.13056,-7.2381 -12.47894,-10.8397 -4.34838,-3.60141 -7.40012,-5.5792 -11.78091,-8.54095 -4.3808,-2.96178 -6.99562,-4.71329 -11.29297,-7.041856 -4.29745,-2.328574 -7.51339,-4.070456 -11.51876,-5.998258 -4.00538,-1.927827 -6.9224,-3.166698 -10.56838,-4.713562 -3.64564,-1.54701 -6.15701,-2.375783 -9.37624,-3.569655 -3.2191,-1.193181 -5.22738,-1.726324 -7.95397,-2.603119 -2.7264,-0.878034 -4.14955,-1.246863 -6.31973,-1.850886 l 2.9e-4,-0.0024"
       id="path88"
       style="stroke-width:3.64124" />
  </g>
</svg>
