<?xml version="1.0" encoding="UTF-8" standalone="no"?>
<svg
   xmlns:dc="http://purl.org/dc/elements/1.1/"
   xmlns:cc="http://creativecommons.org/ns#"
   xmlns:rdf="http://www.w3.org/1999/02/22-rdf-syntax-ns#"
   xmlns:svg="http://www.w3.org/2000/svg"
   xmlns="http://www.w3.org/2000/svg"
   xmlns:sodipodi="http://sodipodi.sourceforge.net/DTD/sodipodi-0.dtd"
   xmlns:inkscape="http://www.inkscape.org/namespaces/inkscape"
   width="210mm"
   height="297mm"
   viewBox="0 0 210 297"
   version="1.1"
   id="svg8"
   inkscape:version="1.0.2 (e86c8708, 2021-01-15)"
   sodipodi:docname="iaito-light.svg">
  <defs
     id="defs2" />
  <sodipodi:namedview
     id="base"
     pagecolor="#ffffff"
     bordercolor="#666666"
     borderopacity="1.0"
     inkscape:pageopacity="0.0"
     inkscape:pageshadow="2"
     inkscape:zoom="1"
     inkscape:cx="382"
     inkscape:cy="560"
     inkscape:document-units="mm"
     inkscape:current-layer="layer1"
     inkscape:document-rotation="0"
     showgrid="false"
     inkscape:window-width="1646"
     inkscape:window-height="1312"
     inkscape:window-x="51"
     inkscape:window-y="26"
     inkscape:window-maximized="0" />
  <metadata
     id="metadata5">
    <rdf:RDF>
      <cc:Work
         rdf:about="">
        <dc:format>image/svg+xml</dc:format>
        <dc:type
           rdf:resource="http://purl.org/dc/dcmitype/StillImage" />
        <dc:title></dc:title>
      </cc:Work>
    </rdf:RDF>
  </metadata>
  <g
     inkscape:label="Layer 1"
     inkscape:groupmode="layer"
     id="layer1">
    <path
       fill="#000000"
       d="m 121.70307,94.601926 c -0.004,-0.0096 0.20694,0.02397 0.61569,0.109284 0.40874,0.08341 0.65489,0.107374 1.43872,0.319723 0.78414,0.210911 1.42173,0.308698 2.54211,0.678176 1.12045,0.369095 2.09745,0.624297 3.51437,1.175591 1.41677,0.551293 2.67235,1.036006 4.34456,1.788 1.6722,0.751947 2.89532,1.32227 4.73112,2.38152 1.83582,1.05931 3.29673,1.87846 5.22843,3.26553 1.93182,1.38723 3.51651,2.5528 5.47711,4.27546 1.96049,1.72267 3.54418,3.29406 5.46826,5.34766 1.92408,2.05356 3.32019,3.84204 5.03095,6.29566 1.71089,2.45357 3.10738,4.56143 4.51756,7.36794 1.41018,2.80656 2.66804,5.26258 3.70003,8.35837 1.03196,3.09599 1.87399,6.03355 2.62302,9.30766 0.74911,3.27416 1.01339,6.35668 1.27969,9.77315 0.26636,3.41643 0.0754,6.65037 -0.17334,10.10908 -0.24863,3.45856 -0.92524,6.75323 -1.69579,10.148 -0.77054,3.39476 -1.92181,6.6612 -3.19135,9.88776 -1.26953,3.22675 -2.90127,6.36214 -4.61876,9.32708 -1.71761,2.96493 -3.80605,5.86597 -5.89907,8.49229 -2.09302,2.62633 -4.57121,5.21421 -6.95301,7.44446 -2.38179,2.23024 -5.15841,4.46202 -7.73413,6.25826 -2.57584,1.79634 -5.55284,3.66933 -8.22431,5.01307 -2.67147,1.34384 -5.64174,2.66856 -8.26401,3.68759 -2.62225,1.01899 -5.7971,2.00169 -8.33959,2.58673 -2.54237,0.58514 -5.44124,1.17425 -7.79881,1.47998 -2.35745,0.30582 -5.10704,0.56562 -7.22428,0.63068 -2.117377,0.0652 -4.370687,0.0383 -6.202707,0.005 -1.83188,-0.0335 -4.086221,-0.29192 -5.594562,-0.46928 -1.50847,-0.17735 -3.155184,-0.42853 -4.317422,-0.62247 -1.162212,-0.19366 -2.460692,-0.45778 -3.253095,-0.62746 -0.792507,-0.1697 -1.399147,-0.29624 -1.80665,-0.37724 -0.40749,-0.0806 -0.615842,-0.11594 -0.611774,-0.10165 0.0078,0.0239 0.0182,0.0432 0.02873,0.0671 0.0117,0.0239 0.02495,0.0431 0.03977,0.0652 0.01443,0.0192 0.03158,0.0431 0.04991,0.0638 0.0182,0.0191 0.03782,0.0431 0.05914,0.0619 0.02106,0.0192 0.04367,0.0383 0.06785,0.0604 0.02392,0.0192 0.04926,0.0383 0.07565,0.059 0.0269,0.0191 0.05407,0.0383 0.08267,0.058 0.02872,0.0192 0.05849,0.0383 0.08903,0.0571 0.03119,0.0192 0.06213,0.0383 0.09462,0.0556 0.03262,0.0191 0.06538,0.0383 0.09943,0.0551 0.03457,0.0144 0.06824,0.0383 0.103331,0.0542 0.03548,0.0144 0.07071,0.0335 0.106711,0.0537 0.03639,0.0144 0.0724,0.0335 0.10918,0.0532 0.03743,0.0144 0.07383,0.0335 0.111,0.0532 0.03743,0.0144 0.07474,0.0335 0.11191,0.0528 0.03782,0.0144 0.07487,0.0335 0.11217,0.0528 0.03782,0.0144 0.07487,0.0335 0.11152,0.0528 0.03743,0.0144 0.07396,0.0335 0.11035,0.0528 0.03691,0.0144 0.07279,0.0335 0.108401,0.0532 0.036,0.0144 0.07084,0.0335 0.105541,0.0532 0.03496,0.0144 0.06863,0.0335 0.101902,0.0542 0.03405,0.0144 0.06577,0.0383 0.09774,0.0546 0.0321,0.0192 0.06252,0.0383 0.09254,0.0556 0.03015,0.0191 0.05888,0.0383 0.08682,0.0565 0.02782,0.0191 0.05459,0.0383 0.08033,0.0574 0.02535,0.0192 0.04991,0.0383 0.07279,0.059 0.02301,0.0192 0.04458,0.0383 0.06499,0.0599 0.02015,0.0192 0.03886,0.0383 0.05589,0.0614 0.01677,0.0191 0.03262,0.0431 0.04653,0.0628 0.01339,0.0191 0.02548,0.0431 0.036,0.0647 0.0104,0.0239 0.01872,0.0432 0.02496,0.0667 0.0065,0.0239 0.0117,0.0432 0.013,0.0685 -0.0039,0.0191 0.175339,0.0863 0.528862,0.19365 0.35342,0.10736 1.27359,0.31781 1.970759,0.47071 0.697142,0.15292 1.937146,0.44004 2.959114,0.6012 1.021928,0.16106 2.572667,0.44003 3.897363,0.57469 1.324839,0.13469 3.166609,0.32787 4.769689,0.40505 1.60309,0.0776 3.707007,0.11412 5.561587,0.10827 1.85446,-0.005 4.53532,-0.20707 6.60448,-0.42182 2.06918,-0.21474 4.90337,-0.64754 7.13932,-1.10585 2.23582,-0.45825 5.16476,-1.2089 7.51573,-1.93525 2.35098,-0.72626 5.29995,-1.85789 7.71256,-2.86691 2.41263,-1.00907 5.58836,-2.61708 7.94392,-4.02812 2.35554,-1.41109 5.1518,-3.25489 7.44761,-4.94826 2.29581,-1.69353 5.09525,-4.0785 7.18244,-6.14338 2.08718,-2.06486 4.40239,-4.63117 6.31684,-6.93499 1.91444,-2.30379 3.98171,-5.3862 5.55385,-7.97749 1.57228,-2.59133 3.31638,-5.83151 4.48725,-8.64018 1.17087,-2.80857 2.35376,-6.02564 3.23167,-8.92667 0.87825,-2.90104 1.67105,-6.35759 2.09567,-9.32276 0.42456,-2.96508 0.73254,-6.22769 0.85543,-9.16094 0.12296,-2.93334 0.009,-6.23693 -0.29565,-9.0734 -0.30386,-2.83647 -0.77554,-5.83045 -1.33245,-8.51905 -0.55697,-2.68859 -1.33751,-5.56125 -2.23126,-8.01875 -0.89369,-2.4575 -1.86117,-4.97616 -2.91814,-7.19792 -1.05683,-2.22166 -2.22189,-4.43772 -3.39313,-6.39642 -1.17125,-1.9586 -2.42999,-3.86859 -3.6616,-5.54471 -1.23167,-1.67612 -2.4773,-3.30306 -3.71197,-4.6865 -1.23467,-1.38343 -2.43519,-2.67349 -3.55848,-3.81927 -1.1233,-1.14582 -2.20742,-2.20143 -3.22534,-3.05941 -1.0179,-0.85798 -1.90543,-1.66586 -2.72549,-2.29582 -0.82001,-0.63005 -1.51596,-1.167917 -2.07817,-1.606757 -0.56224,-0.439078 -1.01271,-0.758081 -1.30923,-0.977237 -0.29653,-0.21906 -0.44498,-0.338896 -0.43492,-0.353757 0.009,-0.01438 0.17837,0.07909 0.49557,0.274185 0.31713,0.195094 0.79462,0.498182 1.37923,0.918854 0.58461,0.420865 1.30315,0.942822 2.14603,1.559212 0.84289,0.61634 1.82732,1.39939 2.82633,2.29883 0.99904,0.89935 2.14857,1.90736 3.29609,3.05108 1.14759,1.14371 2.38116,2.45395 3.63992,3.83993 1.25872,1.38597 2.54161,3.06578 3.7963,4.75005 1.25477,1.68423 2.54211,3.6597 3.73466,5.63134 1.19261,1.97163 2.37494,4.264 3.45106,6.50325 1.07611,2.23926 2.19942,4.9129 2.98905,7.43242 0.78973,2.51953 1.62972,5.3664 2.19854,8.07987 0.56875,2.71343 1.00587,5.80203 1.31784,8.66553 0.31201,2.86351 0.34005,6.29288 0.22007,9.25503 -0.11997,2.96201 -0.5056,6.31215 -0.93099,9.30666 -0.42541,2.99451 -1.36427,6.55133 -2.24812,9.48151 -0.88401,2.93023 -2.15923,6.47829 -3.48062,9.2524 -1.32141,2.77406 -2.99768,5.92091 -4.58351,8.53894 -1.58572,2.61799 -3.85718,5.71493 -5.78874,8.04286 -1.93157,2.32788 -4.51071,5.17984 -6.71496,7.16289 -2.20423,1.98304 -4.90437,4.23423 -7.22098,5.94703 -2.31661,1.71279 -5.48563,3.74937 -7.92791,5.06277 -2.4423,1.31356 -5.46877,2.78792 -7.90357,3.81136 -2.43482,1.02359 -5.52114,2.05726 -7.89394,2.79669 -2.37279,0.73928 -5.43147,1.37274 -7.68846,1.84303 -2.25701,0.47023 -5.21118,0.76709 -7.30052,0.99319 -2.08933,0.22625 -4.87811,0.27371 -6.75173,0.29097 -1.873477,0.0191 -4.458197,-0.0744 -6.073201,-0.22097 -1.615129,-0.14668 -3.5245,-0.3413 -4.857073,-0.52944 -1.332559,-0.18791 -2.95125,-0.45681 -3.978547,-0.65387 -1.027218,-0.19702 -2.339684,-0.4597 -3.041415,-0.6301 -0.701731,-0.17017 -1.24051,-0.2996 -1.604731,-0.3854 -0.364259,-0.0858 -0.553934,-0.12802 -0.557457,-0.12321 -0.013,0.0191 0.218192,0.10112 0.681221,0.24494 0.463094,0.1438 1.592058,0.49674 2.51332,0.71274 0.92121,0.21619 2.495305,0.62784 3.850702,0.86396 1.355397,0.23633 3.35887,0.59305 5.120236,0.80325 1.761236,0.20995 4.601898,0.52348 6.741458,0.55943 2.139557,0.0335 5.326457,0.1006 7.791957,-0.10541 2.4655,-0.20612 5.92836,-0.55254 8.65907,-1.05532 2.73069,-0.50274 6.36643,-1.39078 9.29549,-2.23135 2.92905,-0.84058 6.98864,-2.48583 9.98427,-3.83691 2.99553,-1.35108 6.96011,-3.61569 9.90629,-5.49232 2.94619,-1.87677 6.6471,-4.82536 9.42612,-7.21988 2.77902,-2.39461 6.37519,-6.22553 8.7268,-9.22545 2.35161,-2.99997 5.16196,-7.10915 7.09772,-10.52165 1.93574,-3.41255 4.27088,-8.31298 5.5087,-12.12007 1.23771,-3.80695 2.63127,-8.6928 3.28721,-12.69025 0.65597,-3.99767 1.06745,-9.04435 1.11768,-13.1113 0.0503,-4.06704 -0.46789,-9.37333 -1.21019,-13.3561 -0.74232,-3.98311 -2.06395,-8.72094 -3.35796,-12.51025 -1.29363,-3.78946 -3.51676,-8.38124 -5.46672,-11.7875 -1.94995,-3.40632 -4.63842,-7.23469 -6.98624,-10.24023 -2.3478,-3.00553 -5.68663,-6.44607 -8.46007,-8.85108 -2.77345,-2.405013 -6.19649,-5.077498 -9.14609,-6.954945 -2.94948,-1.877255 -6.55109,-3.902818 -9.55904,-5.235106 -3.0078,-1.332336 -6.42984,-2.594258 -9.3296,-3.543789 -2.89975,-0.949676 -6.42693,-1.717106 -9.17019,-2.175455 -2.74325,-0.458252 -5.79254,-0.803236 -8.26628,-0.967268 -2.47387,-0.163936 -5.20876,-0.154828 -7.35314,-0.08676 -2.144517,0.06807 -4.505007,0.268431 -6.270557,0.495257 -1.765417,0.22673 -3.524756,0.509926 -4.886872,0.747201 -1.362104,0.237275 -2.692142,0.552588 -3.624062,0.7542 -0.93205,0.201325 -1.820336,0.439558 -2.299235,0.555704 -0.478964,0.116004 -0.729143,0.164415 -0.735395,0.140927 -0.0065,-0.02397 0.231956,-0.116485 0.699391,-0.274664 0.467357,-0.158184 1.35502,-0.4386 2.278049,-0.678224 0.923069,-0.239193 2.260438,-0.5941 3.615821,-0.86536 1.355397,-0.271308 3.129319,-0.589929 4.889793,-0.846856 1.76049,-0.256929 4.16803,-0.490418 6.310117,-0.58528 2.1421,-0.09491 4.93508,-0.128937 7.40869,0.0096 2.47349,0.140448 5.59001,0.469758 8.3344,0.907878 2.74428,0.438121 6.38127,1.2102 9.28408,2.142236 2.90279,0.931988 6.40244,2.203736 9.41356,3.520925 3.0111,1.317333 6.72814,3.383113 9.68155,5.247713 2.95327,1.8646 6.48691,4.596572 9.26454,6.990655 2.77763,2.394221 6.24822,5.943101 8.60061,8.939471 2.35237,2.99643 5.12759,6.92082 7.0821,10.31889 1.95453,3.39816 3.98412,7.89618 5.46243,11.61206 1.47814,3.71592 2.7823,8.95673 3.52983,12.9338 0.74747,3.97649 1.31036,9.46819 1.26606,13.52982 -0.0441,4.06109 -0.44277,9.25464 -1.09196,13.247 -0.64918,3.99241 -2.04977,9.02969 -3.27973,12.83232 -1.23003,3.8025 -3.60961,8.90511 -5.53622,12.31482 -1.92662,3.40972 -4.79126,7.6639 -7.1326,10.66257 -2.34134,2.99868 -5.84517,6.59228 -8.49394,9.11905 -2.64877,2.52676 -6.87958,5.75768 -9.81358,7.63854 -2.934,1.8808 -7.01185,4.26161 -9.99493,5.61991 -2.98308,1.35833 -6.77975,2.82977 -9.65238,3.82028 -2.87262,0.99052 -7.08706,1.94906 -9.80596,2.46599 -2.71891,0.51697 -6.28831,0.92896 -8.74304,1.15291 -2.45459,0.22386 -5.76058,0.22002 -7.890747,0.20612 -2.13018,-0.0144 -5.103247,-0.27275 -6.857503,-0.45681 -1.754269,-0.18407 -3.827241,-0.50216 -5.177309,-0.70852 -1.350067,-0.20612 -3.000589,-0.57866 -3.918549,-0.76033 -0.918013,-0.18168 -2.131709,-0.49416 -2.593854,-0.6001 -0.462288,-0.10593 -0.694114,-0.14859 -0.680324,-0.12413 0.02729,0.0485 0.329686,0.17496 0.890003,0.37389 0.560199,0.1994 1.921289,0.59218 2.996014,0.87724 1.074517,0.28617 2.944153,0.72032 4.506655,1.03452 1.562632,0.31397 4.467337,0.80123 6.498697,0.9897 2.03138,0.18839 5.388987,0.47743 7.839397,0.45203 2.45041,-0.0239 6.19902,-0.14525 9.00696,-0.45778 2.80794,-0.31205 7.40336,-0.99818 10.46292,-1.8052 3.05943,-0.80728 7.26107,-2.12082 10.51227,-3.32555 3.25094,-1.20545 8.43737,-3.7397 11.62744,-5.68142 3.18956,-1.94259 7.69202,-5.05986 10.74715,-7.58878 3.05511,-2.52893 7.54058,-6.90749 10.17109,-10.13242 2.63064,-3.22484 6.01804,-8.07354 8.22127,-11.79119 2.20324,-3.7178 4.87342,-9.81385 6.3266,-14.01559 1.45318,-4.2014 3.06058,-10.76247 3.65109,-15.25722 0.59061,-4.49524 0.9485,-11.26483 0.63427,-15.8406 -0.31411,-4.57567 -1.29185,-11.25739 -2.49012,-15.70239 -1.19872,-4.44424 -3.47022,-10.75283 -5.48485,-14.8704 -2.01476,-4.11742 -5.45785,-9.80853 -8.18563,-13.42331 -2.72791,-3.6153 -7.16291,-8.494065 -10.46812,-11.455978 -3.30523,-2.961915 -8.50131,-6.898191 -12.21555,-9.087977 -3.71411,-2.189787 -8.97677,-4.743444 -12.82722,-6.288849 -3.85083,-1.54526 -9.83463,-3.239119 -13.72262,-3.943274 -3.88786,-0.704204 -9.27798,-1.333727 -12.99335,-1.440477 -3.71565,-0.106894 -8.849187,0.171126 -12.271978,0.581109 -3.422793,0.410318 -8.142896,1.386694 -11.175057,2.209296 -3.032174,0.822506 -7.267412,2.252965 -9.837037,3.366097 -2.569756,1.112989 -5.81791,2.667404 -7.939462,3.838011 -2.121548,1.170749 -4.841848,2.862113 -6.501116,3.996673 -1.659273,1.134751 -3.904352,2.763945 -5.102611,3.764863 -1.198316,1.00087 -2.595498,2.16419 -3.387533,2.893559 -0.792206,0.72913 -1.399147,1.288429 -1.808291,1.665193 -0.409024,0.376764 -0.950434,0.936494 -0.950434,0.936494 l 3.961169,-3.684572 3.8176,-3.101164 3.991482,-2.873523 4.579191,-2.879082 4.334928,-2.32827 4.463906,-2.073738 4.578935,-1.812351 5.17415,-1.64204 4.785923,-1.198168 4.851731,-0.916889 5.420557,-0.646971 4.943437,-0.266036 4.95498,0.02876 5.48132,0.383955 4.91985,0.689152 4.87342,0.980497 4.80977,1.267962 4.72822,1.549191 5.1196,2.081839 4.48382,2.161026 4.34684,2.423274 4.63957,2.992592 3.98146,2.979267 3.79718,3.207961 3.60111,3.424816 3.72161,4.058312 3.11598,3.86721 2.88594,4.04144 2.89659,4.68027 2.33336,4.38604 2.0764,4.51514 1.97823,5.15117 1.46954,4.75624 1.19102,4.8373 0.90717,4.90297 0.61985,5.52204 0.24888,4.99352 -0.0469,5.00444 -0.43131,5.5777 -0.71663,4.96653 -1.01044,4.91874 -1.30022,4.8535 -1.8107,5.32532 -1.92966,4.64321 -2.2012,4.52011 -2.465,4.38083 -3.08023,4.70083 -3.0248,4.00861 -3.25463,3.82175 -3.89903,4.02778 -3.72869,3.35417 -3.91665,3.13084 -4.09142,2.89835 -4.78148,2.91422 -4.43703,2.33842 -4.56638,2.07921 -5.25404,1.97619 -4.80774,1.46488 -4.88864,1.18383 -5.5616,0.96281 -5.01624,0.52742 -5.04363,0.23153 -5.053907,-0.0671 -5.673944,-0.47887 c 0,0 14.313611,1.94489 19.484331,1.35324 3.57397,-0.40888 9.45807,-1.56976 13.60848,-2.67301 4.15102,-1.10341 11.60068,-3.99107 15.91417,-6.34268 4.31286,-2.35176 10.91747,-6.64041 15.11643,-10.1134 4.19872,-3.47304 10.41334,-10.13597 13.91794,-14.88817 3.50485,-4.75208 8.74252,-14.15254 11.01905,-20.72597 2.27654,-6.57229 4.765,-17.90791 4.9995,-25.51874 0.23454,-7.61021 -1.1962,-20.14256 -3.60884,-27.64434 -2.41272,-7.50154 -7.85751,-18.80835 -12.52611,-24.99874 -4.66848,-6.190677 -13.59326,-15.235657 -20.06901,-19.502104 -6.47564,-4.265922 -16.91738,-9.299321 -23.3944,-11.162243 -6.47702,-1.862825 -16.11964,-3.319838 -21.03416,-3.457554 -4.91477,-0.137572 -10.705167,0.302466 -11.117727,0.352797 -0.412515,0.05081 -2.973575,0.303425 -5.79711,0.740059 -2.823406,0.437162 -8.37688,1.708717 -12.315212,2.898879 -3.938345,1.190164 -10.571494,4.044226 -14.92874,6.317705 -4.356741,2.273528 -11.310383,7.110157 -15.197612,10.493893 -3.887101,3.383736 -9.34723,9.336568 -12.66729,13.599608 -3.320066,4.26261 -7.684923,12.23631 -9.860123,17.18242 -2.175072,4.94625 -4.816866,13.67189 -5.6647,18.75634 -0.847974,5.08412 -1.489705,13.07837 -1.356031,17.7329 0.13369,4.65414 1.069364,12.22988 2.036076,16.52423 0.966646,4.2942 3.18943,11.33394 4.810269,15.04919 1.620714,3.71563 4.518319,9.26073 6.416023,12.33415 6.378819,10.29324 16.685522,20.25535 26.300497,22.87931 9.614975,2.62396 17.314662,6.30924 24.523156,-4.5414 2.182556,-4.23586 -0.644268,-15.66811 -12.254344,-27.22707 -1.756166,-1.61236 -2.509902,-2.21906 -4.534684,-4.46858 -2.024783,-2.24956 -2.527141,-2.76485 -4.528718,-5.74882 -2.001572,-2.98382 -2.620485,-4.07811 -4.397323,-7.75478 -1.776712,-3.67671 -1.993586,-4.49892 -3.155823,-8.84399 -1.162289,-4.34506 -1.29604,-5.51212 -1.634408,-10.33638 -0.338466,-4.82431 -0.451975,-5.66862 0.50006,-11.17374 0.952064,-5.50517 0.969219,-6.99933 3.423172,-12.51438 2.453954,-5.51504 3.141869,-7.2902 6.951354,-12.16225 3.809486,-4.87205 5.279782,-6.34512 10.013584,-10.08295 4.733673,-3.73783 5.976951,-4.6109 11.48869,-6.86018 5.511752,-2.24927 7.27629,-3.05284 12.340577,-3.82013 5.064307,-0.767283 6.846227,-1.100715 10.532177,-0.94675 3.68596,0.153871 5.04503,0.224334 5.34346,0.261723 0.29839,0.03834 1.36008,0.03355 4.11982,0.505657 2.75974,0.4712 4.453,0.59707 8.57702,1.9609 4.12401,1.36374 6.39941,2.1072 11.13917,4.81611 4.73975,2.70887 7.15173,4.39099 11.5384,8.58817 4.38668,4.19718 6.61362,6.69706 9.89323,12.41668 3.27973,5.71963 5.12352,9.42271 6.70214,16.07523 1.57872,6.65229 2.30506,11.1889 1.87702,17.97895 -0.428,6.78938 -1.38747,11.77101 -3.39691,17.94337 -2.00944,6.17189 -4.25275,10.55501 -7.85893,15.66941 -3.60617,5.11427 -7.092,8.96408 -11.51914,12.80314 -4.42725,3.83849 -8.6791,6.51721 -13.38778,8.94249 0.30994,-0.0431 0.73098,-0.14523 1.25654,-0.30246 0.52555,-0.15674 1.07688,-0.348 1.79154,-0.64616 0.71471,-0.29815 1.47272,-0.59055 2.35137,-1.03969 0.87872,-0.44915 1.80487,-0.87974 2.82239,-1.48769 1.01757,-0.6079 2.07108,-1.20647 3.20186,-1.9786 1.13141,-0.7714 2.26893,-1.56237 3.48901,-2.50015 1.22007,-0.93774 2.39803,-1.93765 3.68265,-3.04153 1.2845,-1.10384 2.40488,-2.26145 3.66693,-3.59187 1.26215,-1.33038 2.42898,-2.60055 3.62609,-4.15179 1.19707,-1.55121 2.32423,-3.10596 3.50117,-4.80911 1.17696,-1.70316 2.08199,-3.38945 3.12551,-5.28789 1.04351,-1.89849 1.83987,-3.70437 2.71511,-5.77465 0.87525,-2.07034 1.52902,-3.97995 2.20639,-6.19308 0.67732,-2.21313 1.16484,-4.20279 1.62148,-6.52473 0.457,-2.32194 0.74493,-4.36611 0.96639,-6.75971 0.22151,-2.39346 0.28168,-4.46025 0.26049,-6.8864 -0.0211,-2.4262 -0.20273,-4.47582 -0.46617,-6.89555 -0.2634,-2.41987 -0.68587,-4.41016 -1.18433,-6.78559 -0.4985,-2.37549 -1.14779,-4.26521 -1.86764,-6.56064 -0.72023,-2.29529 -1.39075,-3.86768 -2.41715,-6.00306 -1.02653,-2.13539 -1.82428,-3.81026 -3.02343,-5.79417 -1.19909,-1.98396 -2.12104,-3.49039 -3.46439,-5.29833 -1.34347,-1.80775 -2.33881,-3.13769 -3.7949,-4.74915 -1.45609,-1.61146 -2.47057,-2.77099 -4.00441,-4.17077 -1.53384,-1.39983 -2.83191,-2.52106 -4.34647,-3.77551 -1.51456,-1.25439 -2.57749,-1.94326 -4.10334,-2.97485 -1.52585,-1.0316 -2.4366,-1.64166 -3.93339,-2.45271 -1.49682,-0.81105 -2.61694,-1.417753 -4.01203,-2.089218 -1.39509,-0.671466 -2.4111,-1.10297 -3.68101,-1.641753 -1.26979,-0.53883 -2.14451,-0.827491 -3.26578,-1.243322 -1.12123,-0.415591 -1.82072,-0.601289 -2.7704,-0.90668 -0.94962,-0.30582 -1.44531,-0.434285 -2.20119,-0.644668 l 1e-4,-6.72e-4"
       id="path88"
       style="fill:#ffffff;fill-opacity:1;stroke:#c5c5c5;stroke-width:1;stroke-opacity:1;stroke-miterlimit:4;stroke-dasharray:none;stroke-linecap:round;stroke-linejoin:round"
       sodipodi:nodetypes="cccccccccscsccccsccssscsccccscscccccccccsccccccccccccccccccccccccsscsccsscsccsscscscccccccssscccccccccsccsccssscscsssccccccccscscscccccsssccsscscscssscccccscsccccccsccscccccscccscsssssssccscssscccccccccscccsccccsccccccccccccccccccccccccccccccccccccccccccccccccccccccccccccccccccccccccccccccsccccccccccccscccccssccsccsccccssscssccccssccscccccssccsscsssssccccsccccsscsssccccc" />
    <path
       style="fill:#ffffff;stroke:#c5c5c5;stroke-width:1;stroke-linecap:round;stroke-linejoin:round;stroke-opacity:1;stroke-miterlimit:4;stroke-dasharray:none;fill-opacity:1"
       d="M 35.983333,27.516667 24.341666,48.683333 c 0,0 8.880565,4.921594 13.758334,6.085416 23.107769,5.513449 45.868397,5.538745 71.17291,3.704168 l 0.08,-0.0058 c 18.82022,-1.364466 35.70136,-10.225371 50.72001,-19.044155 11.26634,-6.736567 39.96141,-28.844252 30.95625,-24.341667 -12.17083,6.085417 -24.41479,15.383223 -38.09999,19.314584 -20.68241,5.941459 -30.42709,8.995834 -64.29375,5.820834 -33.866671,-3.175 -52.652087,-12.7 -52.652087,-12.7 z"
       id="path118"
       sodipodi:nodetypes="ccasscssscc" />
  </g>
</svg>
