<?xml version="1.0" encoding="UTF-8" standalone="no"?>
<svg
   xmlns:dc="http://purl.org/dc/elements/1.1/"
   xmlns:cc="http://creativecommons.org/ns#"
   xmlns:rdf="http://www.w3.org/1999/02/22-rdf-syntax-ns#"
   xmlns:svg="http://www.w3.org/2000/svg"
   xmlns="http://www.w3.org/2000/svg"
   xmlns:sodipodi="http://sodipodi.sourceforge.net/DTD/sodipodi-0.dtd"
   xmlns:inkscape="http://www.inkscape.org/namespaces/inkscape"
   width="512"
   height="512"
   viewBox="0 0 512.00001 512.00001"
   version="1.1"
   id="svg8"
   inkscape:version="1.0.2 (e86c8708, 2021-01-15)"
   sodipodi:docname="iaito-o-light.svg">
  <defs
     id="defs2" />
  <sodipodi:namedview
     id="base"
     pagecolor="#ffffff"
     bordercolor="#666666"
     borderopacity="1.0"
     inkscape:pageopacity="0.0"
     inkscape:pageshadow="2"
     inkscape:zoom="1"
     inkscape:cx="382"
     inkscape:cy="560"
     inkscape:document-units="mm"
     inkscape:current-layer="layer1"
     inkscape:document-rotation="0"
     showgrid="false"
     inkscape:window-width="1646"
     inkscape:window-height="1312"
     inkscape:window-x="51"
     inkscape:window-y="23"
     inkscape:window-maximized="0" />
  <metadata
     id="metadata5">
    <rdf:RDF>
      <cc:Work
         rdf:about="">
        <dc:format>image/svg+xml</dc:format>
        <dc:type
           rdf:resource="http://purl.org/dc/dcmitype/StillImage" />
        <dc:title />
      </cc:Work>
    </rdf:RDF>
  </metadata>
  <g
     inkscape:label="Layer 1"
     inkscape:groupmode="layer"
     id="layer1">
    <path
       fill="#000000"
       d="m 311.74168,83.375738 c -0.0115,-0.02758 0.59457,0.06887 1.76896,0.313987 1.17436,0.239647 1.88158,0.308499 4.13362,0.918604 2.25293,0.605974 4.08481,0.886928 7.3038,1.948485 3.21919,1.060456 6.02623,1.793683 10.09722,3.37762 4.07056,1.583933 7.678,2.976574 12.48247,5.137147 4.80444,2.160438 8.31861,3.799047 13.5931,6.842409 5.27454,3.04353 9.47191,5.39705 15.02193,9.38227 5.55036,3.98569 10.10337,7.33452 15.73642,12.28393 5.63273,4.94945 10.18287,9.46425 15.711,15.3645 5.52812,5.90013 9.53932,11.03866 14.45454,18.08822 4.91561,7.04941 8.9279,13.10556 12.97952,21.16901 4.05162,8.0636 7.66561,15.12005 10.63065,24.01464 2.96495,8.89517 5.38421,17.33515 7.53626,26.74207 2.15229,9.40708 2.9116,18.26354 3.67671,28.07949 0.76529,9.81583 0.21664,19.10734 -0.49802,29.04465 -0.71435,9.93688 -2.65834,19.40288 -4.87222,29.15647 -2.21386,9.75357 -5.5216,19.13847 -9.16915,28.40878 -3.64752,9.27085 -8.33571,18.27922 -13.27027,26.79786 -4.93491,8.51862 -10.93526,16.85367 -16.94877,24.39941 -6.01351,7.54578 -13.13366,14.98108 -19.97687,21.38887 -6.84318,6.40776 -14.82075,12.81994 -22.22112,17.98076 -7.40071,5.16111 -15.954,10.54245 -23.62947,14.40318 -7.67547,3.86102 -16.20943,7.66711 -23.74354,10.59491 -7.53405,2.92768 -16.65579,5.7511 -23.96068,7.432 -7.30455,1.68118 -15.63336,3.37376 -22.40696,4.25216 -6.77325,0.87866 -14.67316,1.6251 -20.75626,1.81203 -6.08349,0.18732 -12.55753,0.11004 -17.82115,0.0144 -5.26322,-0.0962 -11.74022,-0.83872 -16.07388,-1.3483 -4.33402,-0.50955 -9.06524,-1.23122 -12.40449,-1.78843 -3.33918,-0.55641 -7.06988,-1.31526 -9.34655,-1.80277 -2.27697,-0.48757 -4.01992,-0.85114 -5.19073,-1.08386 -1.17077,-0.23158 -1.76939,-0.33311 -1.7577,-0.29205 0.0224,0.0687 0.0523,0.12411 0.0825,0.19278 0.0336,0.0687 0.0717,0.12383 0.11427,0.18733 0.0414,0.0552 0.0907,0.12383 0.14339,0.18331 0.0523,0.0549 0.10866,0.12383 0.16992,0.17784 0.0605,0.0552 0.12547,0.11004 0.19494,0.17354 0.0687,0.0552 0.14153,0.11004 0.21735,0.16951 0.0773,0.0549 0.15535,0.11004 0.23752,0.16664 0.0825,0.0552 0.16805,0.11004 0.2558,0.16406 0.0896,0.0552 0.17851,0.11004 0.27185,0.15975 0.0937,0.0549 0.18785,0.11004 0.28568,0.1583 0.0993,0.0414 0.19606,0.11005 0.29688,0.15573 0.10194,0.0414 0.20316,0.0962 0.3066,0.15428 0.10455,0.0414 0.20801,0.0962 0.31368,0.15285 0.10754,0.0414 0.21213,0.0962 0.31892,0.15286 0.10754,0.0414 0.21474,0.0962 0.32153,0.1517 0.10866,0.0414 0.21511,0.0962 0.32228,0.1517 0.10866,0.0414 0.21511,0.0962 0.32041,0.1517 0.10754,0.0414 0.2125,0.0962 0.31705,0.1517 0.10605,0.0414 0.20913,0.0962 0.31145,0.15285 0.10343,0.0414 0.20353,0.0962 0.30323,0.15285 0.10045,0.0414 0.19718,0.0962 0.29278,0.15572 0.0978,0.0414 0.18896,0.11004 0.28082,0.15688 0.0922,0.0552 0.17963,0.11004 0.26588,0.15974 0.0866,0.0549 0.16917,0.11004 0.24944,0.16233 0.0799,0.0549 0.15685,0.11004 0.2308,0.16492 0.0728,0.0552 0.1434,0.11004 0.20914,0.16951 0.0661,0.0552 0.12808,0.11005 0.18672,0.17211 0.0579,0.0552 0.11165,0.11004 0.16058,0.1764 0.0482,0.0549 0.0937,0.12384 0.13369,0.18044 0.0385,0.0549 0.0732,0.12383 0.10343,0.18589 0.0299,0.0687 0.0538,0.12412 0.0717,0.19164 0.0187,0.0687 0.0336,0.12411 0.0374,0.1968 -0.0112,0.0549 0.50377,0.24796 1.51949,0.55639 1.01542,0.30845 3.65918,0.9131 5.66224,1.3524 2.00297,0.43936 5.56566,1.26429 8.5019,1.72733 2.93613,0.46274 7.39159,1.26426 11.19761,1.65115 3.80643,0.38698 9.09806,0.94201 13.70391,1.16376 4.60588,0.22296 10.6507,0.32788 15.97914,0.31108 5.32809,-0.0144 13.03054,-0.59494 18.9755,-1.21195 5.94501,-0.61697 14.08799,-1.86046 20.51216,-3.17724 6.42379,-1.31661 14.839,-3.47332 21.59363,-5.56022 6.75466,-2.08663 15.22742,-5.33795 22.15915,-8.23699 6.93179,-2.89918 16.05605,-7.5192 22.82387,-11.57329 6.76776,-4.05424 14.80177,-9.35171 21.39792,-14.21697 6.59615,-4.86572 14.63929,-11.71804 20.63605,-17.6507 5.99673,-5.9326 12.64861,-13.30593 18.14907,-19.92509 5.50042,-6.61908 11.43995,-15.47523 15.9569,-22.92033 4.51736,-7.44521 9.52838,-16.75466 12.89243,-24.82432 3.36406,-8.06937 6.76265,-17.31241 9.285,-25.64744 2.52332,-8.33505 4.80113,-18.26615 6.02112,-26.78545 1.21981,-8.51905 2.10468,-17.89293 2.45776,-26.32053 0.35328,-8.42785 0.0259,-17.91948 -0.84944,-26.06901 -0.87303,-8.14954 -2.22823,-16.75162 -3.8283,-24.4763 -1.60024,-7.72466 -3.84283,-15.97817 -6.41069,-23.03887 -2.56768,-7.06071 -5.34737,-14.29713 -8.38418,-20.68053 -3.0364,-6.3831 -6.38377,-12.75012 -9.74889,-18.37771 -3.36514,-5.6273 -6.98166,-11.11494 -10.52023,-15.93065 -3.53874,-4.8157 -7.11759,-9.4901 -10.66496,-13.4649 -3.54736,-3.97476 -6.9966,-7.68127 -10.22395,-10.97324 -3.22738,-3.29208 -6.3422,-6.32498 -9.26681,-8.79006 -2.92455,-2.46509 -5.47454,-4.78623 -7.83067,-6.59618 -2.35599,-1.81022 -4.35554,-3.355575 -5.97084,-4.616417 -1.61539,-1.261526 -2.90965,-2.178061 -3.76159,-2.807724 -0.85196,-0.629387 -1.27848,-0.97369 -1.24958,-1.016388 0.0259,-0.04131 0.51248,0.227236 1.42384,0.787768 0.91115,0.560529 2.28304,1.431339 3.9627,2.639982 1.67966,1.209198 3.74411,2.708846 6.16581,4.479809 2.42173,1.77082 5.25012,4.02062 8.1204,6.60483 2.87037,2.58394 6.17311,5.48008 9.47008,8.76613 3.29717,3.28602 6.84137,7.05051 10.45795,11.0326 3.61646,3.98207 7.30236,8.80837 10.90724,13.64749 3.60511,4.839 7.3038,10.51478 10.73015,16.17954 3.42651,5.66474 6.8235,12.25101 9.91532,18.68465 3.0918,6.43368 6.31921,14.11538 8.58792,21.35428 2.26899,7.23892 4.68239,15.41834 6.31668,23.21447 1.63409,7.79603 2.88999,16.66996 3.78632,24.89716 0.89644,8.22722 0.977,18.08023 0.63229,26.59086 -0.34469,8.51022 -1.45266,18.13559 -2.67486,26.7392 -1.22225,8.6036 -3.91971,18.82279 -6.45913,27.24156 -2.53987,8.41892 -6.20373,18.61294 -10.00025,26.5833 -3.79658,7.97022 -8.61271,17.01152 -13.169,24.53344 -4.55597,7.52182 -11.08216,16.41971 -16.63177,23.10815 -5.54965,6.68829 -12.95984,14.88233 -19.29292,20.57988 -6.33303,5.69752 -14.09087,12.16547 -20.74678,17.08656 -6.65591,4.92106 -15.7609,10.77241 -22.77788,14.54597 -7.01703,3.77402 -15.71246,8.01004 -22.70794,10.95051 -6.99555,2.9409 -15.86293,5.91077 -22.68028,8.03524 -6.81732,2.12405 -15.60529,3.94406 -22.08991,5.29526 -6.48467,1.35103 -14.97237,2.20394 -20.97531,2.85356 -6.0029,0.65004 -14.01542,0.7864 -19.39856,0.83599 -5.38273,0.0549 -12.80896,-0.21376 -17.44907,-0.63487 -4.64046,-0.42143 -10.12633,-0.9806 -13.95497,-1.52115 -3.82861,-0.53989 -8.47931,-1.31247 -11.43087,-1.87865 -2.95132,-0.56606 -6.7222,-1.32078 -8.73836,-1.81036 -2.01616,-0.48892 -3.56414,-0.86079 -4.6106,-1.1073 -1.04656,-0.24651 -1.59152,-0.36782 -1.60164,-0.354 -0.0374,0.0549 0.62689,0.29053 1.95723,0.70375 1.33053,0.41315 4.57419,1.42719 7.22109,2.04779 2.64675,0.62114 7.16932,1.80386 11.06354,2.48226 3.89423,0.67901 9.65046,1.70391 14.71108,2.30784 5.06025,0.60321 13.22183,1.50402 19.36906,1.60731 6.14721,0.0962 15.30357,0.28904 22.38726,-0.30285 7.08369,-0.59221 17.03292,-1.58752 24.87859,-3.03207 7.84562,-1.44444 18.29155,-3.99589 26.70711,-6.41095 8.41553,-2.41509 20.07924,-7.1421 28.68606,-11.02392 8.60653,-3.88182 19.99726,-10.38833 28.46201,-15.78012 8.46477,-5.3922 19.09794,-13.86387 27.08242,-20.74362 7.98447,-6.88002 18.31672,-17.88673 25.07318,-26.50587 6.75647,-8.61929 14.83096,-20.42548 20.39264,-30.23002 5.56163,-9.80468 12.27077,-23.88423 15.82719,-34.82248 3.55609,-10.93784 7.55996,-24.9755 9.44456,-36.46067 1.88469,-11.48581 3.06692,-25.98555 3.21124,-37.67041 0.14451,-11.68511 -1.34431,-26.93075 -3.47703,-38.37375 -2.13278,-11.44397 -5.92999,-25.05635 -9.64784,-35.94351 -3.71676,-10.88759 -10.10409,-24.08035 -15.70657,-33.86696 -5.60245,-9.78678 -13.32676,-20.78617 -20.07234,-29.42146 -6.74552,-8.63527 -16.3384,-18.52037 -24.30684,-25.430261 -7.96847,-6.909903 -17.80329,-14.588287 -26.27786,-19.982427 -8.47423,-5.393589 -18.8221,-11.213284 -27.46432,-15.041114 -8.64178,-3.827968 -18.47373,-7.453628 -26.80511,-10.181749 -8.33134,-2.728538 -18.46537,-4.933461 -26.3471,-6.250355 -7.8817,-1.316615 -16.64269,-2.307797 -23.75006,-2.779082 -7.10773,-0.471008 -14.96541,-0.44484 -21.12649,-0.249272 -6.16146,0.195574 -12.94345,0.771236 -18.01609,1.422935 -5.07227,0.651424 -10.12707,1.465081 -14.0406,2.146802 -3.91349,0.681721 -7.73486,1.587655 -10.41238,2.166911 -2.6779,0.578432 -5.23005,1.262905 -6.60599,1.596607 -1.37612,0.333294 -2.09492,0.472385 -2.11288,0.404901 -0.0187,-0.06887 0.66644,-0.334676 2.00944,-0.789144 1.34277,-0.454482 3.89314,-1.260153 6.54512,-1.948622 2.65209,-0.687232 6.49452,-1.706924 10.3887,-2.486288 3.89423,-0.779502 8.99093,-1.69494 14.04899,-2.433123 5.05811,-0.738189 11.97527,-1.409032 18.12976,-1.681583 6.15452,-0.272688 14.1791,-0.370452 21.28609,0.02758 7.10664,0.403525 16.0608,1.349674 23.94577,2.608447 7.88466,1.258777 18.33419,3.477056 26.67432,6.154912 8.34008,2.677718 18.39502,6.33161 27.04634,10.116058 8.65127,3.784863 19.33079,9.720107 27.8163,15.077336 8.48512,5.357229 18.63771,13.206526 26.61819,20.085026 7.98047,6.878895 17.95191,17.075275 24.71062,25.684225 6.75866,8.60911 14.73221,19.88438 20.34776,29.64746 5.61561,9.76334 11.44688,22.68671 15.69425,33.3629 4.24688,10.6763 7.99389,25.7338 10.14164,37.16042 2.14758,11.42496 3.76483,27.2033 3.63755,38.87287 -0.12671,11.66802 -1.27213,26.58974 -3.13734,38.06029 -1.86517,11.47069 -5.88924,25.94343 -9.42307,36.86886 -3.53403,10.92506 -10.37086,25.58549 -15.90625,35.38202 -5.53543,9.79655 -13.76589,22.01934 -20.49286,30.63489 -6.72696,8.61559 -16.7939,18.94045 -24.40415,26.20018 -7.61025,7.25969 -19.76589,16.54253 -28.19564,21.94648 -8.42975,5.40377 -20.14592,12.24413 -28.71669,16.1467 -8.57076,3.90265 -19.47907,8.13028 -27.73249,10.97614 -8.2534,2.84589 -20.36201,5.5999 -28.17375,7.0851 -7.81177,1.48532 -18.0671,2.66902 -25.11985,3.31246 -7.05234,0.64317 -16.55086,0.63214 -22.6711,0.5922 -6.12027,-0.0414 -14.66227,-0.78364 -19.70246,-1.31247 -5.04024,-0.52885 -10.99615,-1.44277 -14.87506,-2.03567 -3.87891,-0.5922 -8.62107,-1.66256 -11.25848,-2.18452 -2.63757,-0.52199 -6.12467,-1.41978 -7.45247,-1.72416 -1.32821,-0.30435 -1.99428,-0.42692 -1.95465,-0.35664 0.0784,0.13934 0.94722,0.50268 2.55709,1.07423 1.60952,0.5729 5.5201,1.70141 8.60792,2.52042 3.08722,0.8222 8.45892,2.06957 12.94818,2.97231 4.48964,0.90207 12.83522,2.30203 18.67157,2.84353 5.83641,0.54127 15.48323,1.37171 22.52357,1.29874 7.04033,-0.0687 17.81056,-0.41732 25.87812,-1.31526 8.06756,-0.89656 21.27078,-2.8679 30.06128,-5.18657 8.79012,-2.31941 20.86196,-6.09338 30.20307,-9.55472 9.34035,-3.46341 24.24162,-10.74462 33.40709,-16.32343 9.164,-5.5813 22.10013,-14.53761 30.8779,-21.80351 8.77771,-7.26594 21.66503,-19.84609 29.22282,-29.11171 7.55815,-9.26537 17.29058,-23.19629 23.62073,-33.87757 6.33019,-10.6817 14.00195,-28.19641 18.17712,-40.26854 4.17516,-12.07115 8.79342,-30.92192 10.49003,-43.8359 1.6969,-12.91539 2.72516,-32.36527 1.82234,-45.51203 -0.90248,-13.14647 -3.71165,-32.34389 -7.15443,-45.11493 -3.44407,-12.76886 -9.97037,-30.89422 -15.75866,-42.72452 -5.78865,-11.82986 -15.68108,-28.18113 -23.51833,-38.56685 -7.83763,-10.38721 -20.57994,-24.40451 -30.07622,-32.914456 -9.49634,-8.509952 -24.42533,-19.819366 -35.09681,-26.110895 -10.6711,-6.291532 -25.79138,-13.628508 -36.8542,-18.06865 -11.06392,-4.439725 -28.25613,-9.306394 -39.42681,-11.329519 -11.1703,-2.023266 -26.65679,-3.831964 -37.33152,-4.13867 -10.67552,-0.30712 -25.42482,0.491666 -35.25892,1.669598 -9.83412,1.178895 -23.39556,3.984146 -32.10734,6.347584 -8.71182,2.363163 -20.88018,6.47305 -28.26304,9.671218 -7.38323,3.197756 -16.71558,7.663785 -22.81107,11.027085 -6.09547,3.363709 -13.91123,8.223209 -18.67851,11.482942 -4.7673,3.260281 -11.2177,7.941159 -14.66044,10.816922 -3.44292,2.875625 -7.45719,6.217989 -9.73281,8.313557 -2.27611,2.094882 -4.01992,3.701818 -5.19545,4.784308 -1.17517,1.08249 -2.730712,2.690664 -2.730712,2.690664 l 11.380932,-10.586236 10.96844,-8.910032 11.46803,-8.255991 13.15659,-8.271963 12.45479,-6.689411 12.82536,-5.958108 13.15585,-5.207111 14.86598,-4.717787 13.75056,-3.442486 13.93963,-2.634337 15.57394,-1.858829 14.20311,-0.764354 14.23628,0.08263 15.74851,1.103151 14.13535,1.980019 14.00194,2.817091 13.81907,3.643013 13.58477,4.45102 14.70925,5.981384 12.88258,6.208898 12.48901,6.962369 13.33007,8.598091 11.43923,8.559807 10.90977,9.216873 10.34644,9.839925 10.69265,11.660036 8.95261,11.11098 8.29166,11.61157 8.32227,13.447 6.70403,12.60164 5.96576,12.97256 5.6837,14.79996 4.22217,13.66527 3.42195,13.89817 2.60642,14.08684 1.7809,15.86551 0.71507,14.34701 -0.13475,14.37839 -1.23921,16.02543 -2.05897,14.26946 -2.90312,14.13215 -3.73569,13.94471 -5.20237,15.30032 -5.54416,13.34052 -6.32432,12.98684 -7.08225,12.58667 -8.84989,13.50607 -8.69063,11.51724 -9.35096,10.98037 -11.2024,11.57231 -10.71299,9.63695 -11.25303,8.9953 -11.75516,8.32732 -13.73779,8.37292 -12.74814,6.71857 -13.11978,5.97383 -15.09551,5.67784 -13.81324,4.20879 -14.04568,3.40129 -15.97917,2.76627 -14.41228,1.51535 -14.49098,0.66521 -14.52051,-0.19279 -16.30195,-1.37585 c 0,0 41.12479,5.58791 55.98092,3.88803 10.26846,-1.17476 27.17422,-4.51012 39.09886,-7.67989 11.9264,-3.17024 33.33021,-11.46685 45.7234,-18.22332 12.39139,-6.7569 31.36726,-19.07872 43.4314,-29.05706 12.06345,-9.97848 29.91883,-29.12191 39.98798,-42.77557 10.06987,-13.65332 25.11835,-40.66202 31.65911,-59.54831 6.54078,-18.88301 13.69044,-51.45166 14.36419,-73.31853 0.67386,-21.86509 -3.43683,-57.8721 -10.36865,-79.42565 -6.93205,-21.55286 -22.57561,-54.03874 -35.98908,-71.82451 C 441.39659,96.461435 415.75458,70.474077 397.14894,58.216041 378.54362,45.959513 348.5432,31.497928 329.93391,26.14552 c -18.60929,-5.352129 -46.31375,-9.538309 -60.43378,-9.933985 -14.12074,-0.395261 -30.75728,0.869023 -31.94262,1.01363 -1.1852,0.145984 -8.54345,0.871778 -16.65582,2.126282 -8.112,1.256021 -24.06782,4.909358 -35.38314,8.328842 -11.31536,3.41949 -30.37323,11.619567 -42.89214,18.151557 -12.51746,6.53213 -32.49614,20.42837 -43.66464,30.150267 -11.168127,9.721897 -26.855761,26.825127 -36.394708,39.073377 -9.538965,12.24701 -22.079745,35.15645 -28.329367,49.36724 -6.249254,14.21119 -13.839458,39.28105 -16.275391,53.88931 -2.436336,14.60731 -4.280109,37.57579 -3.896047,50.94884 0.384108,13.37193 3.072416,35.13798 5.849901,47.47618 2.777295,12.33778 9.163631,32.56383 13.820504,43.23821 4.656514,10.67547 12.981696,26.60723 18.434037,35.43755 18.327145,29.57377 47.939591,58.19616 75.564621,65.73512 27.62502,7.53897 49.74719,18.12724 70.45809,-13.04801 6.27076,-12.17015 -1.85106,-45.01644 -35.20826,-78.22678 -5.04569,-4.63251 -7.21126,-6.37563 -13.02872,-12.83878 -5.81745,-6.46327 -7.26079,-7.94376 -13.01157,-16.51708 -5.75077,-8.57289 -7.52898,-11.71692 -12.63406,-22.28046 -5.10471,-10.56364 -5.72782,-12.92596 -9.06707,-25.40989 -3.3394,-12.4839 -3.72369,-15.83701 -4.69586,-29.69771 -0.97246,-13.86085 -1.29858,-16.28666 1.43673,-32.10355 2.7354,-15.81705 2.78469,-20.10995 9.8352,-35.95538 7.05052,-15.8454 9.02699,-20.94566 19.97211,-34.94367 10.94513,-13.99801 15.16948,-18.23032 28.77028,-28.96957 13.60044,-10.73926 17.17253,-13.2477 33.00845,-19.71016 15.83595,-6.46243 20.90569,-8.77119 35.45602,-10.97571 14.55039,-2.204501 19.67006,-3.162493 30.26026,-2.720132 10.59022,0.44209 14.495,0.644539 15.35243,0.751963 0.85731,0.110155 3.90768,0.09639 11.83676,1.452815 7.92907,1.353814 12.79402,1.715454 24.64285,5.633914 11.84879,3.91819 18.3863,6.05425 32.00423,13.83728 13.61789,7.78293 20.54781,12.61587 33.15126,24.67489 12.60348,12.05902 19.00176,19.24149 28.42449,35.67467 9.42307,16.43322 14.72051,27.07263 19.25609,46.18615 4.53586,19.11286 6.62272,32.14711 5.39291,51.65578 -1.2297,19.50673 -3.98638,33.81958 -9.75975,51.55354 -5.77337,17.73261 -12.21868,30.32587 -22.57969,45.02018 -10.36097,14.69393 -20.3762,25.75492 -33.09593,36.78502 -12.72004,11.02846 -24.93614,18.72476 -38.46476,25.69289 0.89049,-0.12383 2.10019,-0.41726 3.61019,-0.869 1.50997,-0.45034 3.09401,-0.99985 5.14732,-1.8565 2.05345,-0.85662 4.23131,-1.69673 6.75578,-2.98716 2.52467,-1.29047 5.18562,-2.5276 8.10908,-4.27432 2.92361,-1.74657 5.95047,-3.46634 9.19935,-5.68477 3.25068,-2.21632 6.51892,-4.48888 10.02436,-7.18324 3.50541,-2.69424 6.88984,-5.56711 10.58071,-8.7387 3.69053,-3.17147 6.90952,-6.49742 10.53555,-10.31989 3.62632,-3.82235 6.97876,-7.4717 10.41821,-11.92861 3.43933,-4.45682 6.6778,-8.92381 10.0593,-13.81717 3.38155,-4.8934 5.98182,-9.73832 8.97998,-15.19277 2.99814,-5.4546 5.28618,-10.64312 7.80085,-16.5913 2.5147,-5.94834 4.39307,-11.43489 6.33924,-17.79349 1.94602,-6.3586 3.34673,-12.07514 4.65871,-18.74636 1.31302,-6.67123 2.14028,-12.54438 2.77656,-19.4215 0.63643,-6.87671 0.8093,-12.81485 0.74842,-19.78548 -0.0606,-6.97078 -0.58247,-12.8596 -1.33936,-19.81179 -0.75679,-6.95258 -1.97059,-12.67094 -3.40273,-19.49584 -1.43225,-6.82508 -3.29775,-12.25449 -5.36597,-18.84954 -2.06931,-6.59466 -3.99579,-11.11233 -6.94477,-17.24755 -2.94935,-6.13524 -5.24138,-10.94735 -8.68669,-16.64737 -3.44514,-5.70017 -6.09402,-10.02833 -9.95363,-15.22277 -3.85996,-5.19389 -6.71969,-9.01497 -10.90322,-13.6449 -4.18353,-4.62992 -7.09826,-7.9614 -11.50517,-11.98314 -4.40692,-4.02189 -8.13643,-7.24332 -12.48795,-10.84751 -4.35152,-3.60402 -7.40545,-5.58323 -11.78941,-8.54712 -4.38396,-2.96392 -7.00066,-4.71669 -11.30112,-7.04694 -4.30055,-2.33025 -7.5188,-4.073384 -11.52707,-6.002587 -4.00827,-1.929206 -6.92739,-3.168971 -10.576,-4.716962 -3.64827,-1.548126 -6.16145,-2.377485 -9.38299,-3.572219 -3.22144,-1.194045 -5.23116,-1.727579 -7.95971,-2.605005 -2.72838,-0.878659 -4.15256,-1.247755 -6.32429,-1.852212 l 2.8e-4,-0.0019"
       id="path88"
       style="fill:#ffffff;fill-opacity:1;stroke:#c5c5c5;stroke-width:2.87313;stroke-linecap:round;stroke-linejoin:round;stroke-miterlimit:4;stroke-dasharray:none;stroke-opacity:1"
       sodipodi:nodetypes="cccccccccscsccccsccssscsccccscscccccccccsccccccccccccccccccccccccsscsccsscsccsscscscccccccssscccccccccsccsccssscscsssccccccccscscscccccsssccsscscscssscccccscsccccccsccscccccscccscsssssssccscssscccccccccscccsccccsccccccccccccccccccccccccccccccccccccccccccccccccccccccccccccccccccccccccccccccsccccccccccccscccccssccsccsccccssscssccccssccscccccssccsscsssssccccsccccsscsssccccc" />
  </g>
</svg>
