<?xml version="1.0" encoding="UTF-8" standalone="no"?>
<!-- Created with Inkscape (http://www.inkscape.org/) -->

<svg
   width="128"
   height="128"
   version="1.1"
   viewBox="0 0 33.867 33.867"
   id="svg2"
   sodipodi:docname="iaito.svg"
   inkscape:version="1.4 (e7c3feb100, 2024-10-09)"
   inkscape:export-filename="iaito.png"
   inkscape:export-xdpi="102.809"
   inkscape:export-ydpi="102.809"
   xmlns:inkscape="http://www.inkscape.org/namespaces/inkscape"
   xmlns:sodipodi="http://sodipodi.sourceforge.net/DTD/sodipodi-0.dtd"
   xmlns="http://www.w3.org/2000/svg"
   xmlns:svg="http://www.w3.org/2000/svg">
  <defs
     id="defs2" />
  <sodipodi:namedview
     id="namedview2"
     pagecolor="#ffffff"
     bordercolor="#666666"
     borderopacity="1.0"
     inkscape:showpageshadow="2"
     inkscape:pageopacity="0.0"
     inkscape:pagecheckerboard="false"
     inkscape:deskcolor="#d1d1d1"
     inkscape:zoom="4.53125"
     inkscape:cx="6.0689655"
     inkscape:cy="108.35862"
     inkscape:window-width="2560"
     inkscape:window-height="1371"
     inkscape:window-x="0"
     inkscape:window-y="0"
     inkscape:window-maximized="1"
     inkscape:current-layer="g2" />
  <g
     transform="translate(-32.279 -138.64)"
     id="g2">
    <circle
       cx="49.213"
       cy="155.58"
       r="15.875"
       fill="#fff"
       id="circle1" />
    <path
       fill="#000000"
       d="m 52.08549,145.97338 c -5.94e-4,-0.002 0.03216,0.003 0.09567,0.0169 0.06351,0.0129 0.101763,0.0167 0.223562,0.0497 0.121848,0.0328 0.220923,0.048 0.39502,0.10538 0.174106,0.0574 0.325922,0.097 0.546097,0.18267 0.220152,0.0857 0.415258,0.16099 0.675102,0.27784 0.259844,0.11684 0.449904,0.20547 0.73517,0.37006 0.285268,0.16461 0.512279,0.2919 0.812446,0.50743 0.300185,0.21557 0.54643,0.39668 0.851089,0.66437 0.304639,0.26769 0.55073,0.51187 0.849713,0.83097 0.298983,0.3191 0.515924,0.59701 0.781759,0.97829 0.265855,0.38126 0.482857,0.7088 0.701985,1.14491 0.219127,0.4361 0.414587,0.81774 0.574948,1.2988 0.160356,0.48109 0.291199,0.93756 0.407591,1.44632 0.116404,0.50877 0.157471,0.98777 0.198851,1.51865 0.04139,0.53088 0.01172,1.0334 -0.02694,1.57085 -0.03864,0.53742 -0.143773,1.04938 -0.263508,1.5769 -0.119735,0.52751 -0.298631,1.03509 -0.495905,1.53646 -0.197272,0.50141 -0.450828,0.98862 -0.71771,1.44933 -0.266899,0.46072 -0.591422,0.91152 -0.916656,1.31963 -0.325235,0.4081 -0.710321,0.81023 -1.080429,1.15679 -0.370108,0.34655 -0.801566,0.69335 -1.201808,0.97247 -0.40026,0.27913 -0.862856,0.57018 -1.277975,0.77898 -0.415121,0.20882 -0.876671,0.41467 -1.284146,0.57302 -0.407472,0.15834 -0.900812,0.31104 -1.29589,0.40195 -0.39506,0.0909 -0.845515,0.18247 -1.211858,0.22997 -0.366324,0.0475 -0.793583,0.0879 -1.122581,0.098 -0.32902,0.0101 -0.679161,0.006 -0.96384,8.1e-4 -0.284656,-0.005 -0.634959,-0.0454 -0.869339,-0.0729 -0.234401,-0.0276 -0.490285,-0.0666 -0.670885,-0.0967 -0.180596,-0.0301 -0.382368,-0.0711 -0.505499,-0.0975 -0.123147,-0.0264 -0.217413,-0.046 -0.280735,-0.0586 -0.06332,-0.0125 -0.09569,-0.018 -0.09506,-0.0158 0.0012,0.003 0.0028,0.007 0.0044,0.0105 0.0018,0.003 0.0039,0.007 0.0062,0.0101 0.0022,0.003 0.0049,0.007 0.0077,0.01 0.0028,0.003 0.0059,0.007 0.0092,0.01 0.0032,0.003 0.0068,0.006 0.01054,0.009 0.0037,0.003 0.0077,0.006 0.01175,0.009 0.0042,0.003 0.0084,0.006 0.01285,0.009 0.0044,0.003 0.0091,0.006 0.01384,0.009 0.0049,0.003 0.0097,0.006 0.01471,0.009 0.0051,0.003 0.01016,0.006 0.01545,0.009 0.0054,0.003 0.0106,0.006 0.01606,0.009 0.0055,0.003 0.01099,0.005 0.01658,0.009 0.0056,0.003 0.01125,0.005 0.01697,0.009 0.0058,0.003 0.01147,0.005 0.01725,0.009 0.0058,0.003 0.01162,0.005 0.01739,0.009 0.0059,0.003 0.01163,0.005 0.01743,0.009 0.0059,0.003 0.01163,0.005 0.01733,0.009 0.0058,0.003 0.01149,0.005 0.01715,0.009 0.0057,0.003 0.01131,0.005 0.01684,0.009 0.0056,0.003 0.011,0.005 0.0164,0.009 0.0054,0.003 0.01066,0.005 0.01584,0.009 0.0053,0.003 0.01022,0.006 0.01519,0.009 0.005,0.003 0.0097,0.006 0.01437,0.009 0.0047,0.003 0.0091,0.006 0.01349,0.009 0.0043,0.003 0.0085,0.006 0.01248,0.009 0.0039,0.003 0.0077,0.006 0.01131,0.009 0.0036,0.003 0.0069,0.006 0.0101,0.009 0.0031,0.003 0.006,0.006 0.0087,0.01 0.0026,0.003 0.005,0.007 0.0072,0.01 0.002,0.003 0.0039,0.007 0.0056,0.01 0.0016,0.003 0.0029,0.007 0.0039,0.0104 10e-4,0.003 0.0018,0.007 0.002,0.0106 -5.93e-4,0.003 0.02725,0.0134 0.08218,0.03 0.05492,0.0167 0.197904,0.0494 0.306236,0.0731 0.10833,0.0238 0.301014,0.0684 0.459817,0.0934 0.158798,0.025 0.399767,0.0683 0.605612,0.0893 0.205867,0.0209 0.492059,0.051 0.741162,0.063 0.249105,0.0121 0.576032,0.0177 0.864216,0.0169 0.288165,-8.2e-4 0.704744,-0.0322 1.026272,-0.0655 0.321529,-0.0334 0.761934,-0.10062 1.109378,-0.17184 0.347425,-0.0712 0.802554,-0.18785 1.167871,-0.30071 0.365319,-0.11286 0.823559,-0.2887 1.198455,-0.4455 0.374898,-0.1568 0.868376,-0.40667 1.234407,-0.62592 0.366027,-0.21927 0.800538,-0.50578 1.157285,-0.76891 0.356745,-0.26316 0.791751,-0.63377 1.11608,-0.95463 0.324326,-0.32085 0.684087,-0.71963 0.981574,-1.07762 0.297485,-0.35799 0.618718,-0.83697 0.863014,-1.23963 0.244316,-0.40267 0.515331,-0.90616 0.697273,-1.3426 0.181942,-0.43642 0.365751,-0.93632 0.50217,-1.38711 0.136471,-0.4508 0.259665,-0.98791 0.325647,-1.44866 0.06597,-0.46075 0.113829,-0.96773 0.132926,-1.42353 0.01911,-0.4558 0.0014,-0.96915 -0.04594,-1.40991 -0.04722,-0.44076 -0.120511,-0.906 -0.207051,-1.32378 -0.08655,-0.42032 -0.207835,-0.86669 -0.346715,-1.24857 -0.138871,-0.38187 -0.289207,-0.77324 -0.45345,-1.11849 -0.164221,-0.34522 -0.345259,-0.68958 -0.527259,-0.99394 -0.182001,-0.30434 -0.377596,-0.60114 -0.568977,-0.86159 -0.191389,-0.26045 -0.384947,-0.51326 -0.576803,-0.72824 -0.191855,-0.21497 -0.378404,-0.41543 -0.552953,-0.59348 -0.174549,-0.17804 -0.343011,-0.34207 -0.501185,-0.47539 -0.158172,-0.13333 -0.296085,-0.25886 -0.423514,-0.35675 -0.127422,-0.0979 -0.235565,-0.18148 -0.322927,-0.24968 -0.08737,-0.0683 -0.157366,-0.1178 -0.203442,-0.15184 -0.04607,-0.034 -0.06915,-0.0527 -0.06758,-0.055 0.0014,-0.003 0.02772,0.0123 0.07701,0.0426 0.04928,0.0303 0.123476,0.0774 0.214318,0.14277 0.09084,0.0654 0.202497,0.14651 0.333473,0.24229 0.130976,0.0958 0.283947,0.21745 0.439183,0.35721 0.155241,0.13975 0.333867,0.29639 0.51218,0.47411 0.178324,0.17773 0.370009,0.38133 0.565608,0.59669 0.195592,0.21536 0.394941,0.47639 0.589906,0.7381 0.19498,0.26172 0.39502,0.56869 0.58033,0.87506 0.18532,0.30638 0.369042,0.66259 0.536261,1.01055 0.167216,0.34795 0.341768,0.76342 0.464469,1.15492 0.122716,0.39151 0.253242,0.83388 0.341631,1.25553 0.08838,0.42164 0.156303,0.90158 0.204781,1.34654 0.04848,0.44496 0.05284,0.97785 0.03419,1.43814 -0.01864,0.46027 -0.07857,0.98085 -0.144667,1.44616 -0.06611,0.46532 -0.211995,1.01801 -0.349336,1.47334 -0.137366,0.45533 -0.335523,1.00666 -0.540855,1.43773 -0.205333,0.43106 -0.465809,0.92005 -0.712231,1.32686 -0.246405,0.40681 -0.599368,0.88805 -0.899513,1.24978 -0.300147,0.36174 -0.70092,0.8049 -1.043438,1.11305 -0.342515,0.30814 -0.762091,0.65796 -1.122069,0.9241 -0.359978,0.26615 -0.852414,0.58262 -1.231919,0.78671 -0.379509,0.20411 -0.849793,0.43322 -1.228137,0.59225 -0.378346,0.15906 -0.85793,0.31968 -1.226639,0.43457 -0.368708,0.11488 -0.843997,0.21332 -1.194711,0.28639 -0.350717,0.0731 -0.809765,0.1192 -1.134428,0.15433 -0.324662,0.0352 -0.758011,0.0426 -1.049152,0.0452 -0.29112,0.003 -0.69276,-0.0116 -0.943716,-0.0343 -0.250975,-0.0228 -0.547673,-0.053 -0.754741,-0.0823 -0.207066,-0.0292 -0.458595,-0.071 -0.618227,-0.1016 -0.15962,-0.0306 -0.363564,-0.0714 -0.472605,-0.0979 -0.109043,-0.0265 -0.192764,-0.0465 -0.24936,-0.0599 -0.0566,-0.0134 -0.08608,-0.0199 -0.08662,-0.0191 -0.002,0.003 0.03391,0.0157 0.105855,0.038 0.07196,0.0224 0.247391,0.0772 0.390545,0.11076 0.143147,0.0336 0.387746,0.0975 0.598361,0.13425 0.210615,0.0367 0.521935,0.0922 0.795634,0.12482 0.273679,0.0326 0.715089,0.0814 1.047556,0.0869 0.332466,0.005 0.827679,0.0157 1.210793,-0.0163 0.383114,-0.032 0.921208,-0.0859 1.345534,-0.16398 0.424322,-0.0781 0.98928,-0.21612 1.444426,-0.34673 0.455146,-0.13063 1.085967,-0.38627 1.551457,-0.59622 0.465476,-0.20995 1.081533,-0.56185 1.539339,-0.85346 0.457809,-0.29163 1.032894,-0.74981 1.464726,-1.12189 0.431833,-0.3721 0.990642,-0.96739 1.356059,-1.43355 0.365416,-0.46616 0.802117,-1.10469 1.102915,-1.63496 0.300795,-0.53027 0.663653,-1.29175 0.855998,-1.88334 0.192328,-0.59156 0.408873,-1.35077 0.5108,-1.97194 0.101931,-0.62119 0.165871,-1.4054 0.173676,-2.03736 0.0078,-0.63198 -0.0727,-1.45652 -0.188051,-2.07541 -0.115349,-0.61892 -0.320717,-1.35513 -0.521792,-1.94396 -0.20102,-0.58884 -0.546472,-1.30236 -0.849477,-1.83166 -0.303002,-0.52931 -0.720764,-1.1242 -1.085592,-1.59123 -0.364825,-0.46703 -0.883646,-1.00166 -1.314611,-1.37537 -0.430967,-0.37372 -0.962873,-0.78899 -1.421212,-1.08073 -0.45832,-0.2917 -1.017975,-0.60646 -1.48538,-0.81348 -0.467383,-0.20704 -0.999134,-0.40312 -1.449728,-0.55067 -0.450592,-0.14757 -0.998681,-0.26682 -1.424957,-0.33805 -0.426274,-0.0712 -0.900103,-0.12482 -1.284498,-0.1503 -0.384414,-0.0255 -0.80939,-0.0241 -1.142605,-0.0135 -0.333237,0.0105 -0.700033,0.0417 -0.974383,0.0769 -0.274328,0.0352 -0.547711,0.0792 -0.759371,0.11612 -0.211657,0.0368 -0.418333,0.0858 -0.563144,0.11719 -0.14483,0.0313 -0.282861,0.0683 -0.357277,0.0863 -0.07443,0.0181 -0.113302,0.0255 -0.114273,0.0219 -0.001,-0.003 0.03604,-0.0181 0.108678,-0.0427 0.07263,-0.0246 0.210556,-0.0682 0.353986,-0.10538 0.143436,-0.0372 0.35125,-0.0923 0.561863,-0.13447 0.210615,-0.0421 0.486265,-0.0917 0.759825,-0.13159 0.273563,-0.0399 0.64767,-0.0762 0.98053,-0.0909 0.332861,-0.0147 0.766863,-0.02 1.151237,0.002 0.384356,0.0218 0.868632,0.073 1.295084,0.14108 0.426433,0.0681 0.991585,0.18805 1.442654,0.33288 0.451065,0.14482 0.994875,0.34244 1.462773,0.54712 0.467896,0.2047 1.045487,0.5257 1.504418,0.81544 0.458909,0.28974 1.008001,0.71426 1.439618,1.08628 0.431615,0.37204 0.970911,0.9235 1.336448,1.3891 0.365536,0.46562 0.796778,1.07543 1.100489,1.60346 0.303715,0.52804 0.619093,1.22699 0.848808,1.8044 0.229689,0.57741 0.432342,1.39178 0.548502,2.00979 0.116149,0.6179 0.203616,1.47125 0.196731,2.1024 -0.0069,0.63105 -0.06881,1.43807 -0.169679,2.05844 -0.100875,0.62039 -0.318514,1.40314 -0.509638,1.99403 -0.191134,0.59086 -0.560898,1.38376 -0.860274,1.9136 -0.299377,0.52983 -0.744514,1.19088 -1.108335,1.65685 -0.363821,0.46596 -0.908282,1.02438 -1.319874,1.41702 -0.411593,0.39262 -1.069019,0.89468 -1.524933,1.18694 -0.455914,0.29226 -1.089573,0.66222 -1.553113,0.87328 -0.463541,0.21107 -1.053507,0.43972 -1.499885,0.59364 -0.446377,0.15392 -1.101259,0.30286 -1.523749,0.38319 -0.422491,0.0803 -0.97714,0.14435 -1.358581,0.17915 -0.381419,0.0348 -0.895138,0.0342 -1.226145,0.032 -0.331008,-0.003 -0.792994,-0.0424 -1.065588,-0.071 -0.272596,-0.0286 -0.594715,-0.078 -0.804502,-0.1101 -0.209788,-0.032 -0.466262,-0.0899 -0.608904,-0.11814 -0.142651,-0.0283 -0.331247,-0.0768 -0.403059,-0.0933 -0.07184,-0.0165 -0.107859,-0.0231 -0.105715,-0.0193 0.0043,0.008 0.05123,0.0272 0.138297,0.0581 0.08705,0.031 0.29855,0.092 0.465551,0.13632 0.166969,0.0445 0.457492,0.11193 0.700289,0.16075 0.242818,0.0488 0.694181,0.12451 1.009833,0.15379 0.315657,0.0293 0.837396,0.0742 1.218165,0.0702 0.38077,-0.003 0.963266,-0.0225 1.399592,-0.0711 0.436326,-0.0485 1.150409,-0.15511 1.625835,-0.28052 0.475405,-0.12544 1.128298,-0.32955 1.633502,-0.51676 0.505165,-0.18731 1.311084,-0.58111 1.806789,-0.88283 0.495627,-0.30186 1.195264,-0.78625 1.670001,-1.17922 0.474734,-0.39298 1.171732,-1.07336 1.580486,-1.57448 0.408776,-0.5011 0.935144,-1.25455 1.277505,-1.83223 0.342362,-0.57771 0.757282,-1.52497 0.983091,-2.17789 0.22581,-0.65285 0.475584,-1.67238 0.567343,-2.37082 0.09177,-0.69851 0.147388,-1.75044 0.09856,-2.46147 -0.04881,-0.71101 -0.200738,-1.74929 -0.386939,-2.43999 -0.18627,-0.69058 -0.539237,-1.67087 -0.852289,-2.31069 -0.313076,-0.63981 -0.848098,-1.52415 -1.271968,-2.08586 -0.42389,-0.56178 -1.113046,-1.31988 -1.626642,-1.78014 -0.5136,-0.46025 -1.32102,-1.07191 -1.898176,-1.41218 -0.577135,-0.34027 -1.394901,-0.73709 -1.993222,-0.97722 -0.598382,-0.24013 -1.528205,-0.50333 -2.13236,-0.61276 -0.604134,-0.10942 -1.441706,-0.20724 -2.019037,-0.22383 -0.577376,-0.0166 -1.375076,0.0266 -1.906944,0.0903 -0.531869,0.0637 -1.265326,0.21548 -1.736493,0.3433 -0.47117,0.12781 -1.129285,0.35009 -1.528578,0.52306 -0.399316,0.17295 -0.904047,0.41449 -1.233715,0.59639 -0.329667,0.18192 -0.752376,0.44474 -1.010208,0.62104 -0.257836,0.17633 -0.606699,0.42949 -0.792897,0.58503 -0.186206,0.15552 -0.403314,0.33629 -0.526389,0.44962 -0.1231,0.1133 -0.217413,0.20022 -0.28099,0.25876 -0.06356,0.0586 -0.147688,0.14552 -0.147688,0.14552 l 0.615526,-0.57254 0.593217,-0.48189 0.620237,-0.44652 0.711561,-0.44738 0.673605,-0.36179 0.693647,-0.32224 0.711521,-0.28162 0.804012,-0.25516 0.743685,-0.18618 0.753911,-0.14247 0.8423,-0.10054 0.768162,-0.0414 0.769955,0.004 0.851743,0.0597 0.764495,0.10709 0.757282,0.15236 0.747391,0.19703 0.734718,0.24073 0.795536,0.3235 0.69674,0.33579 0.675456,0.37656 0.720944,0.46502 0.618679,0.46295 0.590044,0.49848 0.559577,0.53218 0.578301,0.63063 0.484193,0.60092 0.448446,0.62801 0.450102,0.72726 0.362581,0.68155 0.322653,0.7016 0.307396,0.80045 0.228354,0.73908 0.185071,0.75166 0.140967,0.76187 0.09632,0.85807 0.03867,0.77595 -0.0073,0.77764 -0.06702,0.86672 -0.111357,0.77175 -0.157012,0.76432 -0.202041,0.75419 -0.281365,0.8275 -0.29985,0.72151 -0.342044,0.70238 -0.383039,0.68074 -0.478636,0.73045 -0.470024,0.62291 -0.505738,0.59386 -0.605871,0.62588 -0.579401,0.5212 -0.608609,0.4865 -0.635765,0.45038 -0.742995,0.45284 -0.689471,0.36337 -0.70957,0.32309 -0.816426,0.30707 -0.747076,0.22763 -0.759646,0.18396 -0.864217,0.14961 -0.779474,0.082 -0.78373,0.036 -0.785327,-0.0105 -0.881675,-0.0744 c 0,0 2.224194,0.30221 3.027672,0.21028 0.55536,-0.0636 1.46969,-0.24393 2.114623,-0.41536 0.645028,-0.17147 1.802631,-0.62018 2.472904,-0.98559 0.670177,-0.36545 1.696467,-1.03186 2.348944,-1.57152 0.652439,-0.53968 1.61813,-1.57503 2.16271,-2.31347 0.544619,-0.73844 1.358503,-2.19917 1.712252,-3.22062 0.353751,-1.02127 0.740434,-2.78271 0.776872,-3.96536 0.03645,-1.18255 -0.185877,-3.12995 -0.560777,-4.29566 -0.374877,-1.16573 -1.220942,-2.92269 -1.946397,-3.88462 -0.72544,-0.96196 -2.112262,-2.36747 -3.11853,-3.03043 -1.00625,-0.66288 -2.628793,-1.44502 -3.635259,-1.7345 -1.006464,-0.28946 -2.504832,-0.51587 -3.2685,-0.53727 -0.763706,-0.0214 -1.663477,0.047 -1.727584,0.0548 -0.0641,0.008 -0.462065,0.0471 -0.900814,0.11499 -0.438729,0.0679 -1.301684,0.26552 -1.913661,0.45046 -0.611981,0.18494 -1.642707,0.62844 -2.31978,0.98171 -0.676994,0.35328 -1.757521,1.10485 -2.361558,1.63065 -0.604017,0.52579 -1.452467,1.4508 -1.968371,2.11324 -0.515905,0.66237 -1.194161,1.90141 -1.532166,2.66998 -0.337985,0.76859 -0.748493,2.12448 -0.880238,2.91455 -0.131767,0.79002 -0.231485,2.03225 -0.210714,2.75552 0.02077,0.72321 0.166169,1.9004 0.316386,2.56769 0.150207,0.66728 0.495606,1.76119 0.747469,2.3385 0.251843,0.57737 0.702102,1.43903 0.996986,1.91661 0.294884,0.47757 0.838852,1.20523 1.145463,1.57209 0.30661,0.36685 0.795437,0.86463 1.066297,1.13172 1.120415,0.78596 0.845396,0.45753 1.875077,0.85141 1.495587,0.58754 3.471686,-0.0475 3.810655,-0.70569 0.339148,-0.65821 -0.100112,-2.43467 -1.904204,-4.23082 -0.27289,-0.25055 -0.390013,-0.34482 -0.704645,-0.69437 -0.314631,-0.34956 -0.392692,-0.42963 -0.703717,-0.89331 -0.311025,-0.46366 -0.407198,-0.6337 -0.683301,-1.20502 -0.276083,-0.57132 -0.309783,-0.69909 -0.490384,-1.37427 -0.180608,-0.67518 -0.201391,-0.85653 -0.25397,-1.60617 -0.05259,-0.74965 -0.07024,-0.88084 0.07771,-1.73629 0.147942,-0.85545 0.150608,-1.08762 0.531928,-1.9446 0.38132,-0.85699 0.488215,-1.13283 1.080171,-1.8899 0.591957,-0.75706 0.820425,-0.98597 1.556012,-1.56679 0.735566,-0.58082 0.928759,-0.71649 1.785229,-1.06601 0.856471,-0.34951 1.130663,-0.47438 1.917604,-0.59361 0.786942,-0.11923 1.063834,-0.17104 1.636596,-0.14711 0.572762,0.0239 0.783947,0.0349 0.83032,0.0407 0.04636,0.006 0.211343,0.005 0.64018,0.0786 0.428835,0.0732 0.691951,0.0928 1.332784,0.3047 0.640829,0.21191 0.994404,0.32744 1.730916,0.74837 0.73651,0.42094 1.111308,0.68233 1.792952,1.33453 0.681648,0.6522 1.027692,1.04065 1.537312,1.92943 0.509636,0.88877 0.796143,1.4642 1.041445,2.49794 0.245318,1.03369 0.358184,1.73864 0.291671,2.79374 -0.06651,1.05501 -0.2156,1.8291 -0.527846,2.78822 -0.312247,0.95906 -0.660836,1.64015 -1.2212,2.43487 -0.560363,0.79471 -1.102027,1.39293 -1.789961,1.98949 -0.68795,0.59646 -1.348646,1.01271 -2.080328,1.38957 0.04816,-0.007 0.113587,-0.0225 0.195254,-0.047 0.08166,-0.0243 0.167337,-0.054 0.278387,-0.10041 0.11106,-0.0463 0.228846,-0.0918 0.36538,-0.16156 0.136544,-0.0698 0.280459,-0.1367 0.438571,-0.23117 0.158121,-0.0945 0.321826,-0.18747 0.497538,-0.30745 0.17581,-0.11987 0.352568,-0.24278 0.542157,-0.3885 0.189587,-0.14571 0.37263,-0.30109 0.572248,-0.47262 0.199599,-0.17153 0.373695,-0.35141 0.569804,-0.55815 0.196126,-0.20673 0.37744,-0.4041 0.563459,-0.64514 0.186012,-0.24104 0.361162,-0.48263 0.544047,-0.74729 0.182888,-0.26465 0.323521,-0.52668 0.485674,-0.82168 0.162151,-0.29501 0.285897,-0.57563 0.4219,-0.89733 0.136005,-0.32171 0.237595,-0.61845 0.342852,-0.96234 0.105249,-0.3439 0.181004,-0.65307 0.251962,-1.01389 0.07101,-0.3608 0.115754,-0.67844 0.150167,-1.05038 0.03442,-0.37192 0.04377,-0.69308 0.04048,-1.07008 -0.0032,-0.37701 -0.0315,-0.6955 -0.07244,-1.0715 -0.04094,-0.37603 -0.106578,-0.6853 -0.184034,-1.05442 -0.07746,-0.36894 -0.178357,-0.66259 -0.290215,-1.01928 -0.111916,-0.35666 -0.216109,-0.601 -0.3756,-0.93281 -0.159514,-0.33182 -0.283476,-0.59208 -0.469812,-0.90036 -0.186326,-0.30829 -0.329588,-0.54237 -0.538332,-0.82331 -0.208762,-0.28091 -0.363428,-0.48756 -0.58969,-0.73797 -0.226262,-0.2504 -0.383901,-0.43058 -0.622245,-0.64809 -0.238344,-0.21752 -0.440052,-0.39175 -0.675398,-0.58668 -0.235348,-0.19493 -0.400517,-0.30197 -0.637619,-0.46227 -0.237102,-0.1603 -0.378624,-0.25509 -0.61121,-0.38112 -0.232591,-0.12603 -0.406647,-0.2203 -0.62343,-0.32465 -0.216783,-0.10433 -0.374661,-0.17138 -0.571992,-0.25511 -0.197314,-0.0837 -0.333236,-0.12858 -0.507471,-0.1932 -0.174227,-0.0646 -0.282921,-0.0934 -0.430492,-0.14088 -0.147561,-0.0475 -0.224587,-0.0675 -0.342043,-0.10018 l 1.5e-5,-1.3e-4"
       id="path88"
       style="stroke-width:0.197075" />
  </g>
</svg>
