<?xml version="1.0" encoding="UTF-8"?>
<!-- Created with Inkscape (http://www.inkscape.org/) -->
<svg width="128" height="128" version="1.1" viewBox="0 0 33.867 33.867" xmlns="http://www.w3.org/2000/svg"><g transform="translate(-32.279 -138.64)"><circle cx="49.213" cy="155.58" r="15.875" fill="#fff"/><path d="m51.556 152.68c-4.77e-4 -9.1e-4 0.0257 3e-3 0.07645 0.0136 0.05076 0.0104 0.08132 0.0134 0.17866 0.0397 0.09737 0.0262 0.17655 0.0383 0.31568 0.0841 0.13914 0.0459 0.26046 0.0776 0.43642 0.14599 0.17594 0.0684 0.33185 0.12866 0.53951 0.22203 0.20766 0.0933 0.35954 0.16421 0.58752 0.29574 0.22797 0.13155 0.40939 0.23327 0.64927 0.40552 0.23989 0.17228 0.43668 0.317 0.68015 0.53093 0.24345 0.21392 0.44012 0.40906 0.67905 0.66407 0.23893 0.25502 0.4123 0.47711 0.62475 0.7818 0.21246 0.3047 0.38588 0.56645 0.56099 0.91496 0.17512 0.34853 0.33132 0.65351 0.45947 1.038 0.12815 0.38447 0.23271 0.74925 0.32573 1.1558 0.09303 0.40658 0.12584 0.78938 0.15891 1.2136 0.03308 0.42425 0.0094 0.82585-0.02153 1.2554-0.03088 0.42948-0.1149 0.83862-0.21058 1.2602-0.09569 0.42157-0.23865 0.82719-0.3963 1.2279-0.15765 0.4007-0.36028 0.79006-0.57356 1.1582-0.2133 0.36819-0.47264 0.72843-0.73255 1.0546-0.25991 0.32615-0.56766 0.64751-0.86343 0.92446-0.29577 0.27696-0.64058 0.5541-0.96043 0.77716-0.31987 0.22306-0.68956 0.45566-1.0213 0.62252-0.33174 0.16688-0.7006 0.33139-1.0262 0.45793-0.32563 0.12654-0.71989 0.24858-1.0356 0.32123-0.31571 0.0727-0.6757 0.14582-0.96846 0.18378-0.29275 0.0379-0.6342 0.0702-0.89712 0.0783-0.26294 8e-3 -0.54276 5e-3 -0.77026 8e-4 -0.22748-5e-3 -0.50743-0.0363-0.69474-0.0584-0.18732-0.022-0.39181-0.0532-0.53614-0.0773-0.14432-0.024-0.30557-0.0569-0.40397-0.0778-0.09841-0.0211-0.17375-0.0367-0.22435-0.0468-0.05061-0.01-0.07647-0.0145-0.07597-0.0126 9.14e-4 3e-3 0.0023 6e-3 0.0036 8e-3 0.0015 3e-3 0.0031 6e-3 0.0049 8e-3 0.0018 3e-3 4e-3 6e-3 0.0062 8e-3 0.0023 3e-3 0.0047 6e-3 0.0073 8e-3 0.0026 3e-3 0.0054 5e-3 0.0084 8e-3s0.0061 5e-3 0.0094 8e-3c0.0034 3e-3 0.0067 5e-3 0.01026 8e-3 0.0036 3e-3 0.0072 5e-3 0.01105 8e-3 0.0039 3e-3 0.0077 5e-3 0.01176 8e-3 0.0041 3e-3 0.0081 5e-3 0.01235 7e-3 0.0043 2e-3 0.0085 5e-3 0.01283 7e-3 0.0044 2e-3 0.0088 5e-3 0.01325 7e-3 0.0045 2e-3 0.0089 5e-3 0.01355 7e-3 0.0047 2e-3 0.0092 5e-3 0.01378 7e-3 0.0047 2e-3 0.0093 5e-3 0.01389 7e-3 0.0047 2e-3 0.0093 5e-3 0.01393 7e-3 0.0047 2e-3 0.0093 5e-3 0.01385 7e-3 0.0047 2e-3 0.0092 5e-3 0.01371 7e-3 0.0046 2e-3 9e-3 5e-3 0.01346 7e-3 0.0045 2e-3 0.0088 5e-3 0.01311 7e-3 0.0044 2e-3 0.0085 5e-3 0.01265 7e-3 0.0042 2e-3 0.0081 5e-3 0.01214 7e-3 4e-3 3e-3 0.0078 5e-3 0.01149 8e-3 0.0038 3e-3 0.0073 5e-3 0.01078 8e-3 0.0035 3e-3 0.0068 5e-3 0.01 8e-3 0.0031 3e-3 0.0062 5e-3 9e-3 8e-3s0.0056 5e-3 8e-3 8e-3 0.0048 5e-3 7e-3 8e-3c0.0021 3e-3 4e-3 6e-3 0.0057 8e-3 0.0016 3e-3 0.0032 6e-3 0.0045 8e-3 0.0013 3e-3 0.0023 6e-3 0.0031 8e-3 7.96e-4 3e-3 0.0015 6e-3 0.0016 8e-3 -4.77e-4 3e-3 0.02177 0.0107 0.06568 0.024 0.04389 0.0134 0.15816 0.0395 0.24473 0.0585 0.08657 0.019 0.24056 0.0547 0.36746 0.0747 0.1269 0.02 0.31948 0.0547 0.48398 0.0713 0.16452 0.0168 0.39323 0.0407 0.5923 0.0503 0.19907 0.01 0.46034 0.0142 0.69064 0.0135 0.23029-8e-4 0.5632-0.0257 0.82015-0.0523 0.25695-0.0267 0.6089-0.0805 0.88656-0.13732 0.27765-0.057 0.64136-0.15012 0.93331-0.24032 0.29195-0.0902 0.65815-0.23071 0.95775-0.35601 0.2996-0.12531 0.69397-0.32499 0.98648-0.50022 0.29251-0.17523 0.63975-0.40419 0.92485-0.61448 0.2851-0.2103 0.63273-0.50647 0.89192-0.76288 0.25919-0.25642 0.54669-0.5751 0.78443-0.8612 0.23774-0.28608 0.49445-0.66886 0.68968-0.99064 0.19525-0.3218 0.41183-0.72417 0.55723-1.073 0.1454-0.34877 0.29229-0.74827 0.40131-1.1085 0.10906-0.36026 0.20751-0.7895 0.26024-1.1577 0.05272-0.3682 0.09097-0.77335 0.10623-1.1376 0.01527-0.36427 0.0012-0.77451-0.03672-1.1268-0.03773-0.35223-0.09631-0.72402-0.16546-1.0579-0.06916-0.33387-0.16609-0.6906-0.27708-0.99577-0.11098-0.30518-0.23112-0.61795-0.36238-0.89385-0.13124-0.27588-0.27592-0.55107-0.42136-0.79431-0.14545-0.24322-0.30176-0.4804-0.4547-0.68854-0.15295-0.20814-0.30763-0.41018-0.46095-0.58198-0.15332-0.17178-0.3024-0.33199-0.4419-0.47428-0.13949-0.14228-0.27412-0.27337-0.40052-0.37991-0.1264-0.10654-0.23662-0.20687-0.33845-0.2851-0.10183-0.0782-0.18825-0.14503-0.25807-0.19953-0.06982-0.0546-0.12576-0.0941-0.16258-0.12135-0.03681-0.0272-0.05525-0.0421-0.054-0.044 0.0012-2e-3 0.02215 0.01 0.06154 0.0341 0.03938 0.0242 0.09868 0.0619 0.17127 0.11411 0.07259 0.0523 0.16183 0.11707 0.2665 0.19362 0.10467 0.0765 0.22692 0.17378 0.35098 0.28547 0.12406 0.11169 0.26681 0.23686 0.40931 0.37888 0.14251 0.14204 0.29569 0.30474 0.45201 0.47685 0.15631 0.17211 0.31562 0.38072 0.47143 0.58987 0.15582 0.20915 0.31568 0.45446 0.46377 0.6993 0.1481 0.24485 0.29492 0.52951 0.42855 0.80757 0.13363 0.27808 0.27313 0.61009 0.37118 0.92297 0.09807 0.31288 0.20238 0.66641 0.27301 1.0034 0.07063 0.33696 0.12491 0.7205 0.16365 1.0761 0.03874 0.3556 0.04223 0.78146 0.02734 1.1493-0.01489 0.36782-0.06279 0.78384-0.11561 1.1557-0.05283 0.37186-0.16942 0.81355-0.27917 1.1774-0.10978 0.36388-0.26814 0.80447-0.43223 1.149-0.16409 0.34449-0.37226 0.73526-0.56918 1.0604-0.19692 0.32511-0.47899 0.70968-0.71885 0.99876-0.23986 0.28908-0.56014 0.64324-0.83387 0.8895-0.27372 0.24625-0.60903 0.52581-0.89671 0.7385-0.28768 0.2127-0.68121 0.46561-0.98449 0.6287-0.30329 0.16312-0.67912 0.34621-0.98147 0.4733-0.30236 0.1271-0.68562 0.25547-0.98028 0.34729-0.29465 0.0918-0.67448 0.17047-0.95476 0.22887-0.28028 0.0584-0.64713 0.0953-0.90658 0.12334-0.25945 0.0281-0.60577 0.034-0.83844 0.0361-0.23265 3e-3 -0.55362-0.01-0.75417-0.0274-0.20057-0.0182-0.43767-0.0424-0.60315-0.0657-0.16548-0.0234-0.36649-0.0568-0.49406-0.0811-0.12756-0.0245-0.29054-0.0571-0.37768-0.0782s-0.15405-0.0372-0.19928-0.0479c-0.04523-0.0107-0.06878-0.0159-0.06922-0.0152-0.0016 3e-3 0.02709 0.0126 0.08459 0.0304 0.05751 0.0178 0.1977 0.0617 0.31211 0.0885 0.1144 0.0268 0.30987 0.0779 0.47818 0.10728 0.16832 0.0294 0.41711 0.0737 0.63584 0.0998 0.21871 0.0261 0.57147 0.065 0.83716 0.0695 0.26569 5e-3 0.66144 0.0125 0.96761-0.0131s0.73619-0.0686 1.0753-0.13105c0.3391-0.0624 0.79059-0.17271 1.1543-0.27709s0.86786-0.30869 1.2399-0.47647c0.37199-0.16778 0.86431-0.449 1.2302-0.68203 0.36586-0.23307 0.82544-0.59922 1.1705-0.89658 0.3451-0.29736 0.79168-0.77309 1.0837-1.1456 0.29202-0.37253 0.64102-0.88281 0.8814-1.3066 0.24038-0.42378 0.53036-1.0323 0.68408-1.5051 0.1537-0.47275 0.32675-1.0795 0.40821-1.5759 0.08145-0.49643 0.13256-1.1231 0.13879-1.6282 0.0062-0.50504-0.0581-1.164-0.15028-1.6586-0.09218-0.49461-0.2563-1.083-0.41699-1.5535-0.16064-0.47058-0.43671-1.0408-0.67886-1.4638-0.24215-0.42299-0.576-0.8984-0.86755-1.2716-0.29155-0.37322-0.70617-0.80047-1.0506-1.0991-0.34441-0.29864-0.76948-0.63052-1.1358-0.86366-0.36627-0.23312-0.81352-0.48465-1.187-0.65009-0.37351-0.16546-0.79846-0.32217-1.1586-0.44007-0.36009-0.11794-0.7981-0.21324-1.1388-0.27015-0.34066-0.057-0.71932-0.0998-1.0265-0.12012-0.30721-0.0204-0.64683-0.0192-0.91312-0.0108-0.26631 8e-3 -0.55944 0.0333-0.77868 0.0615-0.21923 0.0281-0.43771 0.0633-0.60686 0.0928-0.16915 0.0295-0.33431 0.0686-0.45004 0.0936-0.11574 0.0249-0.22605 0.0546-0.28552 0.069-0.05948 0.0144-0.09054 0.0204-0.09132 0.0175-7.96e-4 -3e-3 0.0288-0.0144 0.08685-0.0341 0.05803-0.0197 0.16827-0.0545 0.28289-0.0841 0.11463-0.0298 0.2807-0.0738 0.44902-0.10745 0.16832-0.0337 0.3886-0.0732 0.60722-0.10518 0.21862-0.0319 0.51759-0.0609 0.7836-0.0727 0.26601-0.0118 0.61284-0.016 0.92002 9.2e-4 0.30716 0.0174 0.69417 0.0583 1.035 0.11274 0.34078 0.0544 0.79243 0.15027 1.1529 0.26603 0.36047 0.11572 0.79506 0.27365 1.169 0.43722 0.37392 0.16359 0.8355 0.42012 1.2023 0.65166 0.36674 0.23155 0.80555 0.57081 1.1505 0.86811 0.34493 0.29731 0.77591 0.73803 1.068 1.1101 0.29212 0.3721 0.63675 0.85943 0.87946 1.2814 0.24272 0.42198 0.49475 0.98055 0.67833 1.442 0.18356 0.46144 0.34551 1.1122 0.43834 1.6061 0.09282 0.4938 0.16272 1.1758 0.15722 1.6801-0.0055 0.50431-0.05498 1.1492-0.1356 1.645-0.08062 0.49578-0.25454 1.1213-0.40728 1.5935-0.15274 0.47221-0.44824 1.1058-0.68749 1.5293-0.23925 0.42343-0.59498 0.95171-0.88573 1.3241-0.29075 0.37238-0.72586 0.81864-1.0548 1.1324-0.32892 0.31378-0.85431 0.715-1.2187 0.94856-0.36435 0.23356-0.87074 0.52921-1.2412 0.69788-0.37044 0.16869-0.84191 0.35141-1.1986 0.47441-0.35673 0.12301-0.88008 0.24204-1.2177 0.30623-0.33764 0.0642-0.78088 0.11535-1.0857 0.14317-0.30481 0.0278-0.71535 0.0273-0.97988 0.0256-0.26453-2e-3 -0.63372-0.0338-0.85157-0.0568-0.21785-0.0228-0.47527-0.0623-0.64292-0.0879-0.16765-0.0256-0.37262-0.0718-0.48661-0.0944-0.114-0.0226-0.26472-0.0614-0.32211-0.0745-0.0574-0.0132-0.0862-0.0184-0.08448-0.0154 0.0034 7e-3 0.04094 0.0218 0.11052 0.0464 0.06956 0.0248 0.23859 0.0735 0.37205 0.10893 0.13343 0.0356 0.36561 0.0894 0.55964 0.12847 0.19405 0.0391 0.55476 0.0995 0.80701 0.1229 0.25226 0.0234 0.66921 0.0593 0.9735 0.0561 0.3043-3e-3 0.7698-0.018 1.1185-0.0569 0.34869-0.0388 0.91936-0.12395 1.2993-0.22416 0.37992-0.10025 0.90168-0.26338 1.3054-0.41297 0.4037-0.14969 1.0478-0.4644 1.4439-0.70552 0.39608-0.24125 0.9552-0.62834 1.3346-0.94238 0.37938-0.31405 0.9364-0.85777 1.2631-1.2583 0.32668-0.40046 0.74732-1.0026 1.0209-1.4642 0.2736-0.46168 0.60518-1.2187 0.78564-1.7405 0.18046-0.52173 0.38006-1.3365 0.45339-1.8946 0.07335-0.55823 0.11778-1.3989 0.07877-1.9671-0.03901-0.56821-0.16042-1.398-0.30922-1.9499-0.14886-0.55188-0.43093-1.3353-0.68111-1.8466-0.25019-0.51131-0.67776-1.218-1.0165-1.6669-0.33875-0.44896-0.88949-1.0548-1.2999-1.4226-0.41045-0.36783-1.0557-0.85663-1.5169-1.1286-0.46122-0.27194-1.1147-0.58905-1.5929-0.78096-0.4782-0.19189-1.2213-0.40224-1.7041-0.48968-0.4828-0.0874-1.1521-0.16562-1.6135-0.17888-0.46141-0.0133-1.0989 0.0212-1.5239 0.0721-0.42504 0.0509-1.0112 0.1722-1.3877 0.27435-0.37654 0.10215-0.90247 0.27978-1.2216 0.41801-0.31911 0.13821-0.72247 0.33124-0.98593 0.4766-0.26346 0.14538-0.60126 0.35543-0.80731 0.49632-0.20605 0.14091-0.48485 0.34322-0.63364 0.46752-0.14881 0.12428-0.32231 0.26874-0.42067 0.35932-0.09838 0.0905-0.17375 0.16-0.22456 0.20679-0.05079 0.0468-0.11802 0.11629-0.11802 0.11629l0.4919-0.45755 0.47407-0.38511 0.49566-0.35683 0.56865-0.35753 0.53831-0.28913 0.55433-0.25751 0.56862-0.22506 0.64253-0.20391 0.59432-0.14879 0.60249-0.11386 0.67313-0.0804 0.61388-0.0331 0.61531 4e-3 0.68067 0.0477 0.61095 0.0856 0.60518 0.12176 0.59728 0.15746 0.58716 0.19238 0.63576 0.25852 0.5568 0.26836 0.53979 0.30092 0.57614 0.37163 0.49442 0.36997 0.47154 0.39835 0.44719 0.4253 0.46215 0.50397 0.38694 0.48024 0.35838 0.50185 0.3597 0.58121 0.28976 0.54466 0.25785 0.56069 0.24566 0.63967 0.18249 0.59064 0.1479 0.6007 0.11265 0.60886 0.07697 0.68573 0.0309 0.62009-0.0058 0.62146-0.05356 0.69264-0.08899 0.61675-0.12548 0.61081-0.16146 0.60271-0.22485 0.6613-0.23963 0.5766-0.27334 0.56131-0.30611 0.54401-0.3825 0.58376-0.37562 0.49779-0.40416 0.47459-0.48418 0.50016-0.46303 0.41652-0.48637 0.3888-0.50807 0.35992-0.59377 0.36189-0.55099 0.29039-0.56706 0.25819-0.65245 0.24541-0.59703 0.18191-0.60707 0.147-0.69064 0.11957-0.62292 0.0655-0.62632 0.0287-0.6276-8e-3 -0.70459-0.0595s1.7775 0.24151 2.4196 0.16804c0.44382-0.0507 1.1745-0.19493 1.6899-0.33193 0.51548-0.13703 1.4406-0.49562 1.9762-0.78763 0.53557-0.29206 1.3557-0.82462 1.8772-1.2559 0.5214-0.43128 1.2931-1.2587 1.7283-1.8488 0.43524-0.59013 1.0857-1.7575 1.3684-2.5738 0.2827-0.81616 0.59172-2.2238 0.62084-3.1689 0.02912-0.94504-0.14854-2.5013-0.44815-3.4329-0.29962-0.93154-0.97575-2.3356-1.5555-3.1044-0.57973-0.76875-1.688-1.892-2.4922-2.4218-0.80415-0.52975-2.1008-1.1548-2.9051-1.3861-0.80432-0.23133-2.0017-0.41226-2.612-0.42936-0.61032-0.0171-1.3294 0.0376-1.3806 0.0438-0.05123 7e-3 -0.36926 0.0376-0.71989 0.0919-0.35061 0.0543-1.0402 0.21219-1.5293 0.35999-0.48907 0.14779-1.3128 0.50221-1.8539 0.78454-0.54102 0.28232-1.4045 0.88294-1.8872 1.3031-0.4827 0.4202-1.1607 1.1594-1.573 1.6888-0.41229 0.52934-0.95432 1.5195-1.2244 2.1337-0.2701 0.61423-0.59816 1.6978-0.70345 2.3292-0.1053 0.63135-0.18499 1.6241-0.16839 2.2021 0.0166 0.57795 0.13279 1.5187 0.25284 2.052 0.12004 0.53326 0.39606 1.4074 0.59734 1.8688 0.20126 0.46141 0.56109 1.15 0.79675 1.5317 0.23566 0.38164 0.67037 0.96316 0.9154 1.2563 0.24503 0.29318 0.63568 0.69098 0.85214 0.90442 0.89538 0.62811 0.6756 0.36565 1.4985 0.68041 1.1952 0.46954 2.7744-0.0379 3.0453-0.56396 0.27103-0.52601-0.08-1.9457-1.5218-3.3811-0.21808-0.20023-0.31168-0.27557-0.56312-0.55491-0.25144-0.27935-0.31382-0.34334-0.56238-0.71389-0.24856-0.37054-0.32541-0.50643-0.54606-0.963-0.22064-0.45657-0.24757-0.55867-0.39189-1.0982-0.14433-0.53957-0.16094-0.6845-0.20296-1.2836-0.04203-0.59908-0.05612-0.70392 0.06209-1.3876 0.11823-0.68363 0.12036-0.86918 0.42509-1.554 0.30473-0.68485 0.39016-0.90529 0.86322-1.5103 0.47306-0.60501 0.65565-0.78793 1.2435-1.2521 0.58783-0.46417 0.74222-0.57259 1.4267-0.85191 0.68445-0.27931 0.90357-0.3791 1.5325-0.47438 0.62889-0.0953 0.85017-0.13669 1.3079-0.11756 0.45772 0.0191 0.6265 0.0279 0.66355 0.0326 0.03706 5e-3 0.1689 5e-3 0.5116 0.0628 0.34271 0.0584 0.55298 0.0742 1.0651 0.2435 0.51212 0.16935 0.79468 0.26168 1.3833 0.59807 0.58858 0.33639 0.88811 0.54527 1.4328 1.0665 0.54474 0.52121 0.82128 0.83164 1.2285 1.5419 0.40728 0.71027 0.63624 1.1701 0.83228 1.9962 0.19605 0.82609 0.28624 1.3894 0.23309 2.2326-0.05316 0.84311-0.1723 1.4617-0.42183 2.2282-0.24953 0.76642-0.52811 1.3107-0.97593 1.9458-0.44782 0.6351-0.88069 1.1132-1.4305 1.5899-0.54978 0.47667-1.0778 0.80932-1.6625 1.1105 0.03848-6e-3 0.09077-0.018 0.15604-0.0375 0.06526-0.0195 0.13373-0.0432 0.22247-0.0803 0.08875-0.037 0.18288-0.0733 0.29199-0.12911 0.10912-0.0557 0.22413-0.10925 0.35049-0.18476 0.12636-0.0755 0.25719-0.14981 0.39761-0.24569 0.1405-0.0958 0.28176-0.19402 0.43327-0.31047 0.15151-0.11645 0.29779-0.24062 0.45731-0.37771 0.15951-0.13707 0.29864-0.28082 0.45536-0.44603 0.15674-0.16521 0.30163-0.32294 0.45029-0.51558 0.14865-0.19262 0.28862-0.38569 0.43478-0.59719 0.14616-0.2115 0.25854-0.42091 0.38813-0.65665 0.12958-0.23576 0.22848-0.46001 0.33716-0.71711 0.10869-0.25709 0.18988-0.49422 0.27399-0.76905 0.08412-0.27484 0.14465-0.52192 0.20136-0.81026 0.05674-0.28833 0.0925-0.54218 0.12001-0.83942 0.02751-0.29722 0.03498-0.55388 0.03235-0.85516-0.0026-0.30129-0.02517-0.5558-0.05789-0.85629-0.0327-0.3005-0.08517-0.54765-0.14707-0.84264-0.0619-0.29499-0.14253-0.52965-0.23192-0.8147-0.08943-0.28504-0.1727-0.4803-0.30016-0.74547-0.12748-0.26517-0.22654-0.47315-0.37545-0.71952-0.1489-0.24637-0.26339-0.43344-0.43021-0.65795-0.16683-0.22449-0.29044-0.38964-0.47125-0.58975-0.18082-0.20012-0.3068-0.34411-0.49727-0.51794-0.19047-0.17382-0.35167-0.31306-0.53975-0.46884-0.18808-0.15577-0.32008-0.24131-0.50956-0.36942-0.18948-0.1281-0.30258-0.20386-0.48845-0.30457-0.18588-0.10071-0.32497-0.17607-0.49822-0.25945-0.17324-0.0834-0.29941-0.13696-0.45711-0.20387-0.15768-0.0669-0.26631-0.10277-0.40555-0.1544-0.13924-0.0517-0.2261-0.0746-0.34403-0.11259-0.11792-0.0379-0.17948-0.0539-0.27335-0.0801l1.4e-5 -8e-5" stroke="#fff" stroke-width=".045699"/><path d="m39.654 145.04-1.4457 2.6285s1.1028 0.61117 1.7085 0.75568c2.8695 0.68466 5.696 0.68781 8.8383 0.45999l0.0099-7.9e-4c2.3371-0.16944 4.4334-1.2698 6.2984-2.3649 1.3991-0.83655 4.9624-3.5819 3.8442-3.0228-1.5114 0.75569-3.0318 1.9103-4.7313 2.3985-2.5684 0.73782-3.7785 1.1171-7.984 0.72284-4.2056-0.39428-6.5384-1.5771-6.5384-1.5771z" stroke="#fff" stroke-width=".032856px"/></g><script id="a"/></svg>
